<?xml version="1.0" encoding="UTF-8" standalone="no"?>
<!-- Created with Inkscape (http://www.inkscape.org/) -->

<svg
   xmlns:dc="http://purl.org/dc/elements/1.1/"
   xmlns:cc="http://creativecommons.org/ns#"
   xmlns:rdf="http://www.w3.org/1999/02/22-rdf-syntax-ns#"
   xmlns:svg="http://www.w3.org/2000/svg"
   xmlns="http://www.w3.org/2000/svg"
   xmlns:sodipodi="http://sodipodi.sourceforge.net/DTD/sodipodi-0.dtd"
   xmlns:inkscape="http://www.inkscape.org/namespaces/inkscape"
   id="svg2929"
   sodipodi:docname="circlethatchframe-1897.svg"
   viewBox="0 0 760.96649 747.99436"
   sodipodi:version="0.32"
   version="1.0"
   inkscape:output_extension="org.inkscape.output.svg.inkscape"
   inkscape:version="0.91 r13725"
   width="760.96649"
   height="747.99445">
  <defs
     id="defs4169" />
  <sodipodi:namedview
     id="base"
     bordercolor="#666666"
     inkscape:pageshadow="2"
     inkscape:window-y="1"
     pagecolor="#ffffff"
     inkscape:window-height="1035"
     inkscape:window-maximized="1"
     inkscape:zoom="0.38165477"
     inkscape:window-x="4"
     showgrid="false"
     borderopacity="1.0"
     inkscape:current-layer="layer1"
     inkscape:cx="1460.9195"
     inkscape:cy="-44.58296"
     inkscape:window-width="1916"
     inkscape:pageopacity="0.0"
     inkscape:document-units="px"
     fit-margin-top="0"
     fit-margin-left="0"
     fit-margin-right="0"
     fit-margin-bottom="0"
     showguides="true"
     inkscape:guide-bbox="true" />
  <g
     id="layer1"
     inkscape:label="Layer 1"
     inkscape:groupmode="layer"
     transform="translate(3260.6946,1674.2549)">
    <path
       style="fill:#000000"
       d="m -3093.5323,-927.52562 c -1.0767,-1.2973 -0.694,-57.8652 0.4215,-62.31 0.6973,-2.778 -2.2779,-3.6459 -7.3843,-2.1542 -4.8978,1.4308 -22.2821,1.3124 -25.0531,-0.1706 -2.6194,-1.4018 -2.8219,-3.6083 -0.4227,-4.6066 0.9625,-0.4005 6.25,-0.6871 11.75,-0.6371 12.6765,0.1155 17.5,-0.5735 17.5,-2.4995 0,-0.82148 -0.7753,-1.37778 -1.75,-1.25578 -0.9625,0.1206 -3.073,-0.3225 -4.6901,-0.9846 -2.1978,-0.8999 -4.6446,-0.9394 -9.6915,-0.1563 -9.6335,1.4946 -13.539,1.3484 -14.2614,-0.5343 -0.8855,-2.3075 -0.9226,-2.2595 3.0234,-3.9082 2.8736,-1.2007 4.4579,-1.294 7.6009,-0.4477 2.1838,0.588 4.1774,0.8623 4.4302,0.6095 0.7774,-0.7774 -4.8142,-5.8319 -8.0772,-7.3013 -1.6964,-0.7639 -4.3144,-2.3671 -5.8179,-3.5627 -1.5035,-1.1956 -3.0292,-1.8783 -3.3905,-1.517 -0.3612,0.3612 -0.8038,6.9821 -0.9835,14.7131 -0.3469,14.92308 -1.065,18.30038 -3.3148,15.58948 -0.8894,-1.0715 -1.381,-6.8154 -1.6336,-19.08508 -0.364,-17.6777 -0.6791,-19.2491 -4.4468,-22.1755 -1.3267,-1.0306 -1.5024,1.3985 -1.5,20.7479 l 0,21.91518 3.125,0 c 7.6564,0 12.3007,2.4764 9.6448,5.1323 -1.0306,1.0306 -48.5489,1.4333 -50.18,0.4252 -0.4774,-0.2951 -2.8304,-0.1835 -5.2289,0.248 -6.0181,1.0826 -8.0475,0.5168 -7.6693,-2.1381 0.3056,-2.1455 0.5227,-2.1666 23.6034,-2.2936 21.936,-0.1208 26.1677,-0.5117 23.5553,-2.1761 -1.195,-0.7614 -2.5981,-44.20648 -1.4837,-45.94048 0.3484,-0.5421 1.6044,-1.2884 2.7911,-1.6585 2.2221,-0.6929 4.0625,-3.5967 2.2796,-3.5967 -0.55,0 -1.2516,0.6556 -1.5591,1.4569 -0.5944,1.549 -5.7633,1.1335 -8.0391,-0.6461 -1.9901,-1.5563 -2.3157,0.5241 -1.8482,11.8111 0.2478,5.983 0.5065,16.6628 0.5749,23.7331 0.1266,13.08518 -0.6779,16.43248 -3.3158,13.79528 -0.9211,-0.9209 -1.2973,-7.6568 -1.43,-25.60258 -0.165,-22.3214 -0.3499,-24.6861 -2.2171,-28.346 -2.9697,-5.8206 -4.7289,-7.2016 -9.1745,-7.2016 -4.1406,0 -4.9087,-0.9417 -2.4396,-2.9909 0.8189,-0.6796 1.214,-1.6806 0.8779,-2.2244 -1.2647,-2.0464 -7.8969,-3.9439 -13.6882,-3.9162 -5.842,0.028 -9.6787,-1.074 -9.6787,-2.7798 0,-0.7921 8.8234,-2.1558 13.75,-2.1251 1.2375,0.01 2.25,-0.431 2.25,-0.9748 0,-0.5438 -0.6375,-0.9888 -1.4167,-0.9888 -0.7791,0 -1.5965,-0.5397 -1.8164,-1.1994 -0.2199,-0.6597 -2.2415,-1.2456 -4.4924,-1.3021 -4.6086,-0.1156 -7.992,-2.181 -6.3169,-3.8561 1.5549,-1.5549 1.2585,-5.6222 -0.4576,-6.2808 -0.8339,-0.32 -1.5,-1.8059 -1.5,-3.3461 0,-3.1493 -2.6757,-6.1971 -3.4046,-3.8781 -1.455,4.6286 -1.6061,7.238 -0.4602,7.9461 0.9748,0.6025 0.9928,1.3402 0.081,3.3409 -0.7745,1.6998 -0.8583,3.3873 -0.2481,4.9924 1.3285,3.4941 1.2007,20.3607 -0.1605,21.202 -2.1943,1.3561 -3.3066,-2.411 -3.199,-10.8342 0.06,-4.6854 0.4407,-9.0558 0.8463,-9.712 0.4056,-0.6563 0.1894,-2.5166 -0.4805,-4.1339 -0.9627,-2.324 -0.9574,-3.2546 0.025,-4.4387 0.99,-1.1929 0.9907,-2.1082 0,-4.4913 -1.1887,-2.8696 -1.0585,-5.622 0.4329,-9.1497 0.4593,-1.0864 -0.3421,-2.8208 -2.3714,-5.132 -1.6862,-1.9201 -3.0655,-4.2191 -3.0655,-5.109 0,-0.8899 -0.4019,-1.618 -0.893,-1.618 -1.1127,0 -2.2881,2.8979 -1.6164,3.9848 0.2735,0.4424 0.7193,12.0513 0.9909,25.7976 0.4108,20.7908 0.2554,25.1911 -0.9241,26.17 -2.476,2.0549 -3.4566,-1.9015 -3.4806,-14.0438 -0.012,-6.2747 -0.1172,-15.9086 -0.2327,-21.4086 -0.1156,-5.5 -0.2061,-13.4694 -0.2012,-17.7098 0.01,-8.6085 -0.01,-8.6317 -7.6429,-9.4779 -4.6237,-0.5126 -7.0696,-0.4856 -20,0.2205 -4.125,0.2253 -9.204,0.4961 -11.2866,0.6018 -4.5721,0.2321 -6.6771,-1.3924 -5.0694,-3.9121 1.0535,-1.651 3.5229,-1.9499 10.356,-1.2535 1.375,0.1401 7.7377,0.1619 14.1392,0.048 6.9272,-0.1228 12.4672,0.2367 13.6843,0.8881 1.1248,0.6019 2.2996,1.0945 2.6108,1.0945 1.1344,0 0.5276,-4.67 -0.852,-6.5566 -1.318,-1.8026 -2.7767,-1.939 -20.75,-1.9411 l -19.3323,0 0,-2.5 c 0,-2.3 0.3171,-2.4744 3.9638,-2.18 2.1801,0.1759 4.589,0.6698 5.3532,1.0974 0.7641,0.4277 3.2434,0.1388 5.5096,-0.6419 2.2661,-0.7808 6.1571,-1.3133 8.6468,-1.1834 7.5761,0.3953 10.0266,0.015 10.0266,-1.5569 0,-2.7748 -3.5462,-3.3194 -19.2949,-2.9631 -13.8053,0.3123 -15.8727,0.1546 -16.4125,-1.252 -0.9237,-2.407 2.5935,-4.574 6.2074,-3.8246 1.65,0.3422 4.125,0.5872 5.5,0.5444 1.375,-0.043 6.4375,-0.1111 11.25,-0.152 7.9147,-0.067 8.75,-0.2564 8.75,-1.9811 0,-1.0488 0.675,-1.9068 1.5,-1.9068 0.825,0 1.5,-0.4766 1.5,-1.059 0,-0.5825 -0.3647,-0.8337 -0.8104,-0.5582 -0.4456,0.2754 -2.6335,0.038 -4.8618,-0.5276 -3.1469,-0.7987 -5.0626,-0.685 -8.5802,0.5092 -3.2515,1.1039 -6.5333,1.3695 -11.636,0.9417 -7.7021,-0.6457 -10.2883,-2.2203 -8.442,-5.1399 1.0757,-1.701 5.7281,-1.8806 18.757,-0.7241 5.5094,0.489 10.5734,-0.2505 10.5734,-1.5441 0,-0.4685 -1.0173,-1.5185 -2.2607,-2.3332 -2.3793,-1.5589 -5.5357,-1.7914 -17.6343,-1.2987 -8.382,0.3413 -10.9095,-0.8944 -9.0264,-4.4131 0.973,-1.8179 1.9906,-1.9921 10.7481,-1.8394 12.8208,0.2235 12.1733,0.3737 12.1733,-2.8249 l 0,-2.8114 -11.373,0.1682 -11.3729,0.1682 -0.2791,-9.6069 c -0.2403,-8.272 -0.2778,-18.7477 -0.089,-24.8568 0.03,-0.9625 -0.3155,-8.275 -0.7672,-16.25 -0.4646,-8.2021 -0.4392,-15.538 0.058,-16.8899 0.6333,-1.7206 0.4517,-2.8627 -0.6488,-4.0787 -1.9659,-2.1723 -1.9455,-4.913 0.053,-7.1213 1.45,-1.6023 1.4066,-1.9221 -0.523,-3.8517 -1.6526,-1.6526 -1.8835,-2.5166 -1.0759,-4.0256 0.5655,-1.0568 1.5051,-2.2162 2.088,-2.5764 0.7107,-0.4392 0.5943,-1.1987 -0.3534,-2.3057 -2.3304,-2.7222 -2.6491,-4.8028 -1.0789,-7.0446 1.3221,-1.8875 1.3137,-2.297 -0.075,-3.6862 -2.2416,-2.2416 -1.9316,-4.7248 0.9247,-7.4082 1.8887,-1.7743 2.2229,-2.6558 1.3881,-3.6616 -0.6046,-0.7285 -0.8178,-2.0585 -0.4736,-2.9554 0.3442,-0.8969 -0.1464,-4.0804 -1.0902,-7.0744 -1.3636,-4.3259 -1.4716,-5.8348 -0.526,-7.3489 0.806,-1.2906 0.8894,-2.6955 0.2586,-4.3545 -0.5743,-1.5107 -0.5754,-6.0259 0,-11.7831 1.1369,-11.4288 1.0796,-8.7729 0.6543,-30.3338 -0.1953,-9.9 -0.7071,-19.4573 -1.1373,-21.2385 -0.6204,-2.5682 -0.4398,-3.3699 0.8727,-3.8735 1.5053,-0.5777 1.5132,-0.7917 0.088,-2.3669 -1.9567,-2.1621 -1.1622,-4.4071 2.083,-5.8857 3.4519,-1.5728 7.6491,-1.4188 9.9568,0.3653 1.9025,1.4708 1.8926,1.5416 -0.4957,3.5615 -1.4739,1.2466 -3.2552,1.8554 -4.5083,1.5409 -2.8624,-0.7184 -5.1258,0.6976 -3.3522,2.0973 0.7135,0.5631 2.4223,1.3069 3.7973,1.6529 1.375,0.346 3.175,1.0936 4,1.6615 1.267,0.8721 1.05,1.4024 -1.3971,3.4137 -2.6876,2.209 -2.897,2.8814 -2.897,9.3023 0,3.8067 0.4482,7.7222 0.9961,8.7011 0.8562,1.5301 1.2326,1.1889 2.6804,-2.4295 0.9263,-2.3152 1.9571,-6.2001 2.2906,-8.6332 0.3335,-2.4331 0.9512,-4.637 1.3728,-4.8975 0.4215,-0.2605 0.5385,-1.3452 0.26,-2.4104 -0.2786,-1.0652 0.2137,-2.9649 1.0939,-4.2215 0.8801,-1.2567 1.6003,-3.5347 1.6003,-5.0623 0,-2.718 0.7089,-3.19 4.25,-2.8298 0.9625,0.098 1.75,-0.2581 1.75,-0.7912 0,-0.5331 0.9,-0.7339 2,-0.4462 2.0517,0.5365 2.7931,-1.1021 1,-2.2103 -1.7644,-1.0905 -1.0746,-2.5211 1.7296,-3.5873 4.0169,-1.5272 5.4836,-4.2332 2.8437,-5.2462 -1.9497,-0.7482 -5.7946,1.2001 -7.9143,4.0103 -1.666,2.2087 -1.6663,2.3232 -0.01,2.3232 1.2014,0 1.4243,0.3224 0.7139,1.0328 -2.6479,2.6479 -6.1762,-2.0207 -4.7481,-6.2828 0.4147,-1.2375 0.6378,-3.2625 0.4958,-4.5 -0.1419,-1.2375 0.2242,-2.25 0.8135,-2.25 0.5894,0 1.0716,-0.8216 1.0716,-1.8257 0,-1.0041 1.1404,-2.897 2.5341,-4.2064 1.9453,-1.8274 2.3958,-3.0103 1.939,-5.0904 -0.4379,-1.9939 -0.1167,-2.9775 1.2159,-3.7232 1.3289,-0.7436 1.8397,-2.2966 1.9187,-5.8338 0.059,-2.6513 0.4613,-5.7205 0.8935,-6.8205 0.4322,-1.1 2.1288,-5.6 3.7703,-10 1.6414,-4.4 3.8268,-8.929 4.8565,-10.0644 1.0296,-1.1355 1.872,-2.958 1.872,-4.0501 0,-1.092 0.3717,-2.413 0.8261,-2.9355 0.4544,-0.5225 1.4344,-2.975 2.1777,-5.45 0.7434,-2.475 1.9428,-5.7076 2.6652,-7.1836 1.1789,-2.4082 1.0734,-2.9726 -1.0273,-5.5 -2.9634,-3.5654 -4.0485,-10.2264 -2.5051,-15.378 2.1518,-7.182 6.8634,-4.0058 6.8634,4.6267 0,2.7477 0.3931,3.4349 1.9648,3.4349 3.5805,0 4.7367,-5.9386 1.8735,-9.6232 -0.48,-0.6178 -0.5919,-1.8553 -0.2486,-2.75 0.5798,-1.5109 -0.9658,-1.9462 -6.5897,-1.8556 -2.0977,0.034 -10.339,1.2344 -10.6571,1.5526 -0.2194,0.2193 0.082,1.6638 0.6699,3.21 0.5879,1.5461 0.8021,3.5062 0.4761,4.3557 -0.326,0.8495 0.1517,6.7801 1.0616,13.1791 1.5296,10.7566 1.5315,11.8721 0.026,14.7829 -0.8955,1.7317 -2.0551,3.1485 -2.5768,3.1485 -2.0324,0 -3.7484,-5.8501 -3.9598,-13.5 -0.1216,-4.4 -0.2578,-8.9 -0.3027,-10 -0.1035,-2.5352 0.8787,-10.2007 1.7421,-13.5965 l 0.6602,-2.5966 -8.608,-0.6074 c -9.2406,-0.6522 -12.171,-0.1942 -10.6676,1.6673 0.5033,0.6232 1.2413,8.4501 1.6399,17.3929 0.5596,12.5574 0.435,16.6088 -0.5474,17.7924 -0.9634,1.1609 -0.9911,1.8135 -0.1143,2.6903 1.465,1.465 1.4812,6.5867 0.039,12.3148 -1.2056,4.7877 -2.3702,5.6286 -3.3817,2.4417 -0.3493,-1.1006 -0.7955,-13.5881 -0.9916,-27.75 l -0.3564,-25.7489 -2.3489,-0.2945 -2.3489,-0.2946 -0.037,27.7946 c -0.041,30.5845 -0.4893,35.2945 -3.3626,35.2945 -2.7979,0 -4.6087,-8.4666 -3.1547,-14.75 1.1781,-5.0905 0.8303,-46.3667 -0.417,-49.5 -1.6835,-4.2289 -1.1861,-4.2946 30.7791,-4.0653 l 30.5034,0.2188 1.6424,-4.3006 c 1.1782,-3.0853 1.6105,-7.2401 1.5296,-14.7018 -0.062,-5.7206 -0.053,-12.4995 0.02,-15.0642 0.1392,-4.8803 -1.2066,-7.0009 -2.7232,-4.2909 -0.7698,1.3755 -4.7696,1.6534 -29.8926,2.077 -25.036,0.4221 -29.175,0.2827 -30.2553,-1.019 -2.3041,-2.7762 -0.9063,-5.1223 2.9387,-4.9325 1.9113,0.094 12.7,0.2778 23.975,0.4076 11.275,0.1299 21.5414,0.615 22.8142,1.0782 1.6178,0.5886 3.5727,0.265 6.4966,-1.0754 2.5583,-1.1728 4.6008,-1.5703 5.2596,-1.0235 2.0419,1.6947 3.1821,-0.8956 2.0236,-4.5971 -1.0146,-3.2417 -2.594,-4.7252 -2.594,-2.4366 0,2.6199 -6.3152,3.3021 -32.7304,3.5358 l -27.2304,0.2409 -0.9514,-3.4457 c -0.6478,-2.3459 -0.5723,-4.9473 0.2364,-8.1507 0.7273,-2.8806 0.9305,-7.2254 0.5241,-11.205 -0.365,-3.575 -0.9733,-14.3263 -1.3518,-23.8917 l -0.6881,-17.3917 2.157,0.5641 c 2.9402,0.7689 3.3909,-1.0194 1.5627,-6.201 -0.8404,-2.3821 -1.5281,-5.7921 -1.5281,-7.5776 0,-2.9831 0.3042,-3.2929 3.75,-3.8186 2.0625,-0.3147 6.2949,-0.3335 9.4053,-0.042 3.2422,0.304 6.5232,0.066 7.6893,-0.5584 1.3933,-0.7457 2.2357,-0.7623 2.6743,-0.053 0.4038,0.6535 6.0066,0.9602 15.1748,0.8309 12.7125,-0.1793 14.6525,0.01 15.4758,1.4769 1.2941,2.3125 -0.1073,2.69 -9.6695,2.6046 -4.4,-0.039 -11.15,-0.038 -15,0 -3.85,0.04 -9.475,-0.1719 -12.5,-0.472 -5.1358,-0.5093 -5.6836,-0.3488 -8.2724,2.4247 -2.3877,2.558 -2.6851,3.5161 -2.1432,6.9047 0.5188,3.2447 0.2753,4.1825 -1.3887,5.348 -1.4208,0.9951 -2.0999,2.7475 -2.2951,5.9222 -0.1525,2.4799 -0.037,4.9406 0.2569,5.4682 1.9166,3.4417 2.9717,10.5541 2.0211,13.6233 -1.2011,3.8778 -0.9921,28.7107 0.2586,30.7344 0.6803,1.1007 3.4202,1.2453 13.9547,0.7361 12.3452,-0.5966 20.6753,-1.4375 21.4509,-2.1653 0.3272,-0.3069 0.149,-47.1625 -0.2217,-58.2811 -0.1065,-3.1963 0.3145,-5.7198 1.0571,-6.3361 2.4435,-2.0279 3.4118,0.3008 3.3202,7.9847 -0.1321,11.0802 0.9682,22.6821 2.3655,24.943 0.4007,0.6484 0.1622,2.2007 -0.5301,3.4495 -0.6923,1.2489 -1.1134,2.7207 -0.9359,3.2707 0.384,1.1892 0.095,14.7733 -0.4019,18.8792 -0.5971,4.9367 0.9409,7.3363 5.0066,7.8109 2.0602,0.2405 4.37,-0.1289 5.3194,-0.8507 2.2155,-1.6844 10.1398,-1.7533 10.2933,-0.089 0.1985,2.1503 0.4719,3.19 1.3497,5.1325 0.5075,1.1232 0.4277,2.5596 -0.1979,3.5614 -0.624,0.9992 -0.9118,6.1079 -0.7108,12.6176 0.1857,6.0162 0.3684,12.0635 0.406,13.4385 0.038,1.375 0.5147,3.175 1.0604,4 0.8505,1.286 1.2407,1.191 2.7347,-0.6659 0.9584,-1.1913 3.6551,-2.725 5.9926,-3.4083 2.4892,-0.7276 4.25,-1.8465 4.25,-2.7007 0,-0.9263 -0.6384,-1.2629 -1.75,-0.9227 -0.9625,0.2947 -3.1636,0.9767 -4.8913,1.5157 l -3.1413,0.98 0.4148,-3.6491 c 0.2281,-2.0069 0.5167,-9.7182 0.6413,-17.1362 0.1917,-11.4176 0.4705,-13.5341 1.8166,-13.7926 1.3082,-0.2511 1.7864,1.4307 2.6977,9.4873 0.6091,5.3859 0.984,11.9116 0.833,14.5017 l -0.2744,4.7091 2.3913,-2.5803 c 2.1687,-2.34 2.431,-3.6527 2.817,-14.0948 0.2341,-6.333 0.9056,-12.0929 1.4923,-12.7998 0.8389,-1.0109 -0.1427,-1.4364 -4.5983,-1.9931 -3.1158,-0.3892 -7.9909,-0.4677 -10.8336,-0.1743 -3.4123,0.3522 -6.0089,0.068 -7.6418,-0.8358 -3.2909,-1.8219 -5.3285,-1.8083 -4.6228,0.031 0.8014,2.0884 -2.2742,5.0052 -3.7362,3.5431 -1.246,-1.2461 -1.6424,-63.3501 -0.417,-65.3332 0.4686,-0.7583 1.5308,-0.3456 3.2375,1.2578 1.6515,1.5514 2.2197,2.7726 1.6241,3.4903 -1.6462,1.9834 -1.6229,31.6485 0.027,34.7317 0.7153,1.3366 0.7345,3.4399 0.06,6.6015 -1.8393,8.624 2.786,12.5299 13.8537,11.6986 2.475,-0.1859 10.8,-0.6441 18.5,-1.0183 13.5298,-0.6575 16.5,-1.355 16.5,-3.8746 0,-0.8843 -5.6248,-1.1531 -22.0499,-1.0538 -21.8446,0.1321 -25.9283,-0.4098 -24.1584,-3.206 0.492,-0.7772 5.4415,-1.3855 14.2313,-1.7488 18.7796,-0.7763 18.453,-0.7714 28.477,-0.4305 7.0183,0.2387 9.7016,-0.071 12.1866,-1.4043 4.2123,-2.2609 4.894,-3.573 2.8942,-5.5706 -1.5407,-1.539 -1.3578,-1.7264 2.6317,-2.696 3.915,-0.9515 4.3168,-1.3425 4.6242,-4.5 0.1954,-2.007 -0.4113,-4.8517 -1.4459,-6.7794 -1.4399,-2.6829 -1.5527,-3.6897 -0.5867,-5.2365 1.6241,-2.6006 1.5031,-4.6102 -0.3197,-5.3097 -1.3087,-0.5022 -1.2405,-1.0947 0.5,-4.3422 1.1086,-2.0683 2.0156,-5.0189 2.0156,-6.5568 0,-2.4613 2.2891,-4.7776 3.5125,-3.5542 0.2345,0.2345 0.6425,6.7025 0.9066,14.3735 0.4778,13.8748 0.493,13.9489 2.9148,14.2525 2.1414,0.2685 2.4906,-0.1527 2.901,-3.5 0.2566,-2.0928 0.037,-7.0947 -0.4877,-11.1153 -0.6729,-5.1537 -0.6129,-8.6662 0.2033,-11.9075 1.4279,-5.6709 0.7673,-6.2459 -7.2005,-6.2671 -4.4376,-0.012 -5.75,-0.3577 -5.75,-1.5153 0,-0.825 0.3375,-1.557 0.75,-1.6266 4.7032,-0.794 51.3732,-1.1245 55.4021,-0.3923 2.7189,0.4941 3.8645,0.1227 6.0979,-1.9768 2.5498,-2.397 2.75,-3.1604 2.75,-10.4858 0,-8.0484 0.5873,-9.4978 3.4098,-8.4148 1.2373,0.4749 1.5902,2.1153 1.5902,7.392 l 0,6.7817 3.6198,0.6791 c 3.4742,0.6518 3.5975,0.8173 3.0629,4.1113 -0.5023,3.0953 -0.3259,3.4322 1.7968,3.4322 1.2946,0 2.5601,0.5625 2.8122,1.25 0.3558,0.9705 0.7422,0.9828 1.7279,0.055 1.0086,-0.949 0.7102,-1.3351 -1.4513,-1.8776 -2.2897,-0.5747 -2.6233,-1.0726 -2.1043,-3.1406 0.7818,-3.1148 4.1685,-6.7859 6.2654,-6.7914 2.4586,-0.01 2.7601,-2.555 0.376,-3.1785 -2.428,-0.6349 -2.4688,-0.7697 -1.0408,-3.438 0.5856,-1.0941 1.2496,-4.327 1.4757,-7.1843 0.4129,-5.2183 0.445,-6.472 0.5426,-21.195 0.058,-8.7499 0.7802,-10.494 3.3012,-7.9729 1.4332,1.4331 1.5668,3.2222 0.9948,13.3142 -1.0758,18.9813 -1.0977,18.5653 1.0021,18.9823 1.0715,0.2128 2.8447,-0.6658 4.1205,-2.0418 1.9115,-2.0614 2.0489,-2.6762 0.9377,-4.1957 -0.716,-0.9793 -1.0715,-2.3806 -0.7901,-3.114 0.2814,-0.7335 0.588,-6.4268 0.6813,-12.6519 0.1588,-10.5952 0.2974,-11.3183 2.1696,-11.3182 1.8942,2e-4 2.004,0.6921 2.0755,13.0733 0.042,7.1902 0.3561,13.8042 0.6991,14.698 0.4671,1.2172 0.1972,1.4695 -1.0755,1.0054 -1.0641,-0.3879 -0.6656,0.4352 1.0661,2.2025 1.5208,1.552 3.0658,2.5212 3.4333,2.1537 0.3675,-0.3675 0.1357,-1.2007 -0.5152,-1.8515 -1.8775,-1.8776 -1.381,-3.0543 1.0896,-2.582 2.2345,0.4271 2.2713,0.281 2.1724,-8.6334 -0.055,-4.9874 -0.4367,-10.5203 -0.8475,-12.2955 -0.9682,-4.1844 0.052,-7.2725 2.4022,-7.2725 2.5989,0 3.179,2.6447 2.5636,11.6877 -0.6345,9.3231 0.5648,12.5892 4.6864,12.7626 1.6914,0.071 2.75,-0.4009 2.75,-1.2263 0,-0.7381 -0.4189,-1.0831 -0.9309,-0.7667 -0.512,0.3164 -1.2136,0.118 -1.559,-0.441 -0.3455,-0.559 0.047,-1.0163 0.8719,-1.0163 0.825,0 1.7944,0.4763 2.1542,1.0585 0.3753,0.6073 1.8927,0.7866 3.559,0.4206 1.8064,-0.3968 2.9048,-0.2298 2.9048,0.4414 0,1.6475 4.6513,1.2854 6.4378,-0.5011 0.8693,-0.8694 1.3441,-1.9633 1.0551,-2.4309 -0.2891,-0.4677 -0.068,-1.133 0.4908,-1.4784 1.3598,-0.8404 1.301,-3.5101 -0.077,-3.5101 -0.6015,0 -1.329,0.9 -1.6167,2 -0.5464,2.0897 -3.7149,2.739 -4.7998,0.9837 -0.3454,-0.559 -1.1165,-0.7145 -1.7135,-0.3455 -0.7261,0.4487 -0.786,0.2058 -0.1809,-0.7337 0.4975,-0.7725 0.9045,-2.5295 0.9045,-3.9045 0,-2.086 0.414,-2.4466 2.5,-2.1774 1.375,0.1774 3.0093,0.9782 3.6317,1.7794 0.9855,1.2685 1.2084,1.2572 1.7243,-0.087 0.4995,-1.3016 2.5198,-1.4926 12.8682,-1.216 6.7517,0.1804 12.9886,0.6565 13.8598,1.058 1.2063,0.5558 1.5641,0.1829 1.5,-1.5634 -0.06,-1.6491 0.548,-2.3831 2.166,-2.6129 2.6536,-0.3768 2.9169,-1.7078 0.5949,-3.0073 -1.0223,-0.572 -2.9893,-0.5579 -5.1441,0.037 -1.919,0.5299 -5.5617,0.6588 -8.0949,0.2866 -2.5332,-0.3723 -9.0744,-0.8523 -14.5358,-1.0667 -9.2527,-0.3633 -12.9434,-1.3902 -11.2136,-3.1199 1.3845,-1.3845 16.0507,-2.2481 20.0668,-1.1816 2.1579,0.573 12.8883,1.1188 23.8453,1.2129 18.0807,0.1552 20.0088,0.01 20.8619,-1.5853 1.3083,-2.4447 2.7295,-2.1993 5.6761,0.9801 1.9463,2.1001 2.6391,2.3907 2.9797,1.25 0.7019,-2.3509 3.3499,-3.9863 6.4545,-3.9863 1.5722,0 4.1191,-0.6519 5.6598,-1.4486 2.4708,-1.2777 3.0635,-1.2649 5.0246,0.1087 1.8437,1.2914 4.0462,1.4372 12.8991,0.8541 5.8716,-0.3868 19.6757,-0.8056 30.6757,-0.9306 13.923,-0.1582 21.1286,-0.6424 23.7144,-1.5935 3.1517,-1.1592 4.108,-1.1555 6.3117,0.024 2.0563,1.1005 2.9982,1.1396 4.522,0.188 1.1011,-0.6876 5.5159,-1.202 10.3164,-1.202 7.5778,0 8.5356,0.2169 9.8764,2.2363 1.2775,1.924 1.7116,2.048 3.1092,0.8881 0.8934,-0.7415 2.3099,-1.0851 3.1477,-0.7636 2.049,0.7862 3.0536,0.6248 2.7581,-0.4432 -0.3766,-1.361 4.3608,-2.2121 8.2507,-1.4823 2.7645,0.5186 3.4934,1.1258 3.4934,2.91 0,1.2401 -0.5097,2.7645 -1.1328,3.3875 -0.623,0.623 -0.8582,1.8482 -0.5227,2.7226 0.954,2.4862 4.5232,-0.2007 4.3183,-3.2507 -0.09,-1.3328 0.587,-2.9105 1.5034,-3.506 2.31,-1.5011 4.8338,0.7446 4.8338,4.3013 0,1.5153 0.7593,3.3727 1.6872,4.1276 1.4773,1.2016 1.6058,1.1549 1.0323,-0.3752 -0.3806,-1.0158 0.2104,-3.2141 1.4116,-5.25 2.5589,-4.337 6.3182,-4.8051 8.0509,-1.0024 1.2515,2.7469 3.818,3.398 3.818,0.9686 0,-2.0893 2.9936,-3.089 4.0856,-1.3643 0.4861,0.7676 0.905,2.2957 0.9309,3.3957 0.058,2.4499 2.6924,6.1244 3.6819,5.135 0.3954,-0.3955 0.9626,-2.8325 1.2603,-5.4156 0.5991,-5.198 2.8151,-6.6391 5.9068,-3.8411 1.4506,1.3128 5.6618,1.57 27.1756,1.6601 14.0024,0.059 26.1339,-0.02 26.9589,-0.1747 0.825,-0.1548 3.6375,0.089 6.25,0.541 4.6691,0.8084 6.3058,2.7843 3.2708,3.9489 -1.9336,0.742 -17.0382,1.0596 -18.1569,0.3818 -0.4751,-0.2879 -7.8389,-0.1004 -16.3639,0.4167 -19.7281,1.1966 -23.9753,1.0807 -26.75,-0.73 -2.0724,-1.3523 -2.25,-1.3106 -2.25,0.5292 0,4.4498 8.2305,6.1347 28.5,5.8343 25.6456,-0.3801 34.565,-0.1206 35.725,1.0394 2.0965,2.0965 -0.4682,3.0059 -9.225,3.2708 -4.675,0.1414 -9.4554,0.5948 -10.623,1.0076 -1.2106,0.428 -2.5806,0.293 -3.1875,-0.3139 -1.3194,-1.3194 -16.1299,-1.0839 -17.7764,0.2826 -0.6765,0.5615 -3.029,0.6931 -5.4545,0.3053 -3.1037,-0.4963 -4.071,-0.3683 -3.5527,0.4703 0.3917,0.6338 1.8106,1.1523 3.1531,1.1523 1.3426,0 3.341,0.9 4.441,2 2.3761,2.3761 3,2.4923 3,0.559 0,-1.9904 1.8353,-2.9406 3.3122,-1.7149 0.6735,0.559 8.9788,1.3389 18.4562,1.7331 9.4774,0.3942 17.2316,1.0455 17.2316,1.4473 0,1.789 -3.0064,2.544 -9.5,2.3855 -9.6625,-0.2357 -12.9243,0.3739 -11.4575,2.1412 0.626,0.7543 2.1083,1.6793 3.294,2.0556 1.1857,0.3763 2.6578,1.3707 3.2713,2.2098 1.2051,1.648 4.3922,2.5188 4.3922,1.2 0,-1.5424 8.0515,-1.6599 9.3085,-0.136 0.9263,1.1231 0.9133,1.5383 -0.059,1.8654 -1.7301,0.5823 -1.5723,3.9164 0.2179,4.6033 0.8074,0.3099 1.8176,0.021 2.2448,-0.643 2.6331,-4.0893 2.8312,-5.9417 2.2149,-20.7063 -0.6019,-14.4179 -0.514,-15.628 1.26,-17.3331 2.9691,-2.8538 5.1541,-0.4815 4.3987,4.7758 -0.3206,2.2315 -0.641,8.7823 -0.712,14.5573 -0.071,5.775 -0.5464,11.3041 -1.0566,12.2868 -0.6257,1.2054 -0.4599,2.7242 0.5097,4.6677 0.9724,1.9491 1.1089,3.2092 0.4221,3.896 -0.5583,0.5583 -0.7444,1.7203 -0.4137,2.5823 0.7184,1.8721 4.2266,2.0811 5.3234,0.3172 0.4275,-0.6875 0.8633,-8.225 0.9686,-16.75 0.3564,-28.8741 0.083,-26.1802 2.6222,-25.8196 l 2.25,0.3196 -0.434,18 c -0.5792,24.0235 -0.1663,30.3349 2.1749,33.25 3.532,4.3976 4.4191,-1.2711 4.1351,-26.425 -0.2207,-19.5547 -0.028,-23.3686 1.2314,-24.4141 1.2043,-0.9995 1.803,-0.9291 3.0965,0.3644 1.4269,1.427 1.464,2.5768 0.3364,10.4432 -0.7612,5.3107 -1.0361,12.8203 -0.6887,18.8106 0.3181,5.484 0.2274,12.4997 -0.2016,15.5904 -0.6417,4.6241 -0.4742,5.9968 0.9454,7.75 0.9488,1.1718 2.4405,2.1305 3.3149,2.1305 1.7366,0 1.6475,0.8185 2.1768,-20 0.1748,-6.875 0.3886,-14.075 0.475,-16 0.086,-1.925 0.055,-6.425 -0.069,-10 -0.3171,-9.114 -0.1853,-10 1.4878,-10 1.761,0 2.9025,3.9504 2.7436,9.4942 -0.063,2.2032 -0.1348,13.0058 -0.1592,24.0058 -0.034,15.0824 -0.3865,20.6477 -1.4355,22.6342 -1.6111,3.0508 -1.079,4.2997 2.2786,5.3487 2.2638,0.7072 15.2415,0.9023 19.5532,0.2939 1.2103,-0.1708 2.1003,0.3935 2.3234,1.4732 0.3243,1.5696 -0.6216,1.75 -9.178,1.75 l -9.5396,0 2.0651,3.5 c 1.2662,2.1461 2.8971,3.5499 4.2162,3.6291 9.0876,0.5453 11.0072,0.8268 11.9296,1.7492 1.6979,1.698 -4.1036,3.5093 -6.0637,1.8932 -2.6921,-2.2197 0.2534,2.159 5.1377,7.6375 3.15,3.5332 4.8542,4.7257 6.0811,4.2549 1.1156,-0.4281 1.4999,-1.2985 1.1123,-2.5197 -0.3256,-1.0261 -0.7962,-6.7025 -1.0456,-12.6143 -0.4744,-11.2452 0.4708,-15.6288 2.9299,-13.5879 0.9824,0.8153 1.2047,4.7818 0.931,16.6107 l -0.3597,15.5396 2.5766,2.5766 c 3.128,3.128 4.4228,2.1841 4.415,-3.2182 0,-2.1729 -10e-5,-4.8507 0.01,-5.9507 0.01,-1.1 0.028,-7.0919 0.048,-13.3153 0.032,-10.124 0.2153,-11.2805 1.744,-10.984 1.5187,0.2946 1.7253,2.1078 1.8591,16.3154 0.2599,27.6059 0.1521,26.3079 2.28,27.4467 1.4761,0.79 2.3304,0.6334 3.6291,-0.6654 1.4692,-1.4691 1.6069,-3.0304 1.0196,-11.558 -0.8938,-12.9736 0.2619,-31.7394 1.9544,-31.7394 1.8856,0 2.1439,2.7081 2.4096,25.258 0.2299,19.5021 0.1182,20.9723 -1.8458,24.301 l -2.0905,3.5431 2.7464,2.4174 c 2.9833,2.6258 5.7131,3.1525 6.8452,1.3206 0.3943,-0.6379 0.6176,-11.3417 0.4962,-23.7861 -0.2288,-23.4656 0.4367,-33.3768 2.2017,-32.7884 1.1659,0.3886 1.5011,8.2188 1.6261,37.9844 l 0.087,20.75 2.995,0 2.995,0 0.1087,-6.25 c 0.06,-3.4375 0.3081,-14.8 0.552,-25.25 0.2439,-10.45 0.402,-20.9125 0.3513,-23.25 -0.066,-3.0515 0.3091,-4.25 1.3305,-4.25 2.1921,0 2.6983,10.2874 2.8473,57.8657 0,1.3011 -0.6477,3.0208 -1.4483,3.8214 -1.2267,1.2267 -1.6749,1.2422 -2.8486,0.098 -2.2951,-2.2369 -5.5218,-1.8952 -6.709,0.7106 -1.7862,3.9202 0.1905,4.543 11.3776,3.5849 9.4158,-0.8065 13.4385,-0.2581 13.4385,1.832 0,2.423 -3.0867,3.1268 -10.8682,2.4778 -5.7492,-0.4794 -8.508,-0.3232 -9.549,0.5407 -3.6464,3.0263 2.5626,5.892 12.7862,5.9013 5.8675,0 8.4223,1.078 7.216,3.0299 -0.3757,0.608 -2.5934,0.8164 -5.3628,0.5039 -3.4314,-0.3871 -5.2689,-0.1 -6.7222,1.0503 -1.9755,1.5637 -1.9663,1.6086 0.75,3.6666 2.0516,1.5544 2.75,2.9464 2.75,5.4811 0,2.8755 0.4225,3.5016 2.75,4.0748 1.5125,0.3724 3.7404,1.3183 4.9509,2.1018 1.2104,0.7835 2.9376,1.2748 3.8381,1.0918 1.4364,-0.2919 1.6327,-2.299 1.5994,-16.3551 -0.039,-16.3432 0.6178,-20.1214 3.07,-17.6694 1.2754,1.2753 1.3691,3.5721 1.6915,41.4665 0.1001,11.7666 0.102,11.7754 2.7388,12.7779 1.4513,0.5518 2.8072,0.8348 3.0132,0.6288 0.2059,-0.2059 0.3366,-7.981 0.2903,-17.278 -0.1614,-32.4426 -0.046,-37.6994 0.8451,-38.5908 2.5889,-2.5889 3.2366,2.4703 3.303,25.8032 0.098,34.3374 0.1431,33.3841 -1.5903,33.3841 -2.0685,0 -1.8769,1.349 0.4967,3.497 1.5965,1.4448 3.5332,1.7779 9.6603,1.6614 4.215,-0.08 7.929,-0.4112 8.2533,-0.7356 0.3243,-0.3245 0.5897,-14.6149 0.5897,-31.7564 0,-27.0368 0.1987,-31.1664 1.5,-31.1664 1.2623,0 1.5745,2.9313 1.9705,18.5 0.5196,20.4359 0.3183,39.3372 -0.4543,42.6435 -0.39,1.6689 0.07,2.2868 2.0765,2.7904 4.3513,1.0921 6.3623,-0.088 5.4963,-3.2254 -0.888,-3.2174 -0.5273,-56.2523 0.4026,-59.1819 0.7993,-2.5186 2.1207,-2.6172 2.7514,-0.2052 0.262,1.0017 0.5807,12.1392 0.7083,24.75 0.3292,32.5363 0.3263,33.7612 -0.083,35.4286 -0.2706,1.1024 0.3928,1.4457 2.5033,1.2951 1.5794,-0.1127 3.0928,-0.4261 3.3631,-0.6964 0.485,-0.485 0.6575,-21.1193 0.3823,-45.7352 -0.1458,-13.0351 0.3159,-16.2211 2.2563,-15.5698 2.2129,0.7428 2.4394,65.2269 0.2368,67.4296 -0.5101,0.5101 -12.5482,0.5504 -24.8386,0.083 l -12.7286,-0.484 0.6168,2.5888 c 0.3393,1.4238 0.7421,2.8225 0.8952,3.1083 0.153,0.2857 5.8283,0.4286 12.6117,0.3176 21.4926,-0.3517 22.2553,-0.3109 23.8335,1.2764 1.3338,1.3416 1.2784,1.679 -0.5,3.0463 -1.6645,1.2796 -3.8455,1.4154 -13,0.8089 -16.9624,-1.1237 -18.6077,-1.1105 -20.349,0.1628 -1.4911,1.0903 -1.479,1.3486 0.1485,3.1469 1.6544,1.8282 7.3918,2.6919 15.2005,2.2883 11.2018,-0.5789 18.8817,-0.4052 19.1488,0.4332 0.1753,0.55 -0.1095,1.675 -0.6329,2.5 -0.7442,1.1732 -3.1915,1.5022 -11.2337,1.5102 -5.6552,0.01 -11.6322,-0.2581 -13.2822,-0.5859 -3.8983,-0.7745 -5.5,-0.1814 -5.5,2.0366 0,3.4997 2.2281,4.0063 16.5784,3.7692 l 13.9215,-0.2301 0,3 c 0,3.4089 1.8683,3.233 -17.5,1.6477 -6.325,-0.5178 -11.854,-0.726 -12.2866,-0.4629 -0.4326,0.2631 0.8841,2.0087 2.9259,3.8789 l 3.7125,3.4005 11.6615,-0.627 c 10.2631,-0.5519 11.7372,-0.4298 12.2927,1.0179 1.4735,3.8399 -0.1225,4.6743 -7.6619,4.0052 -3.9293,-0.3487 -7.8351,-0.9866 -8.6797,-1.4176 -2.2223,-1.134 -9.1325,-0.2888 -10.0724,1.232 -0.5027,0.8134 -0.1661,1.6427 0.9034,2.2255 0.9375,0.5109 2.0089,1.3901 2.3807,1.9538 0.3996,0.6057 5.0259,0.9786 11.3106,0.9117 11.1906,-0.1192 12.8343,0.5515 10.6998,4.3656 -0.6953,1.2423 -0.5473,2.4147 0.5083,4.0257 1.4494,2.2119 1.4578,13.5609 0.02,27.1293 -0.567,5.3516 -1.1946,6.0166 -2.8779,3.0493 -0.9397,-1.6562 -1.3268,-6.7839 -1.331,-17.6293 -0.01,-17.4557 0.5009,-16.5929 -9.4258,-16.0154 -5.1247,0.2982 -5.3665,0.4442 -6.83,4.1255 -1.2332,3.1021 -1.2863,4.2478 -0.2838,6.1209 0.6784,1.2675 1.5438,3.8224 1.9232,5.6776 0.3991,1.9511 1.3815,3.5062 2.3305,3.689 1.3886,0.2674 1.6262,-0.6535 1.5463,-5.994 -0.098,-6.5212 1.529,-12.3633 3.1612,-11.3546 0.5233,0.3234 0.9535,9.5072 0.9817,20.9545 0.041,16.8145 -0.2087,20.5937 -1.4296,21.607 -1.6664,1.383 -1.9439,3.5783 -0.5604,4.4334 0.5057,0.3125 1.5718,-0.084 2.3692,-0.8816 0.7974,-0.7974 2.3276,-1.2202 3.4005,-0.9397 1.0957,0.2866 2.5216,-0.1777 3.2533,-1.0594 1.8713,-2.2549 3.9341,-1.9348 5.182,0.804 0.779,1.7099 0.773,2.9497 -0.021,4.4343 -0.6066,1.1334 -1.1129,4.4528 -1.1251,7.3765 -0.016,3.7309 -0.6053,6.061 -1.9778,7.8157 l -1.9555,2.5 -0.086,-4.5 c -0.076,-4.0055 -0.1942,-4.2279 -1.0738,-2.0235 -0.5435,1.3621 -0.7466,3.439 -0.4514,4.6154 0.4368,1.7403 1.2383,2.1173 4.3016,2.0235 3.3798,-0.1036 3.7647,0.1402 3.7647,2.3846 0,2.3243 -0.2987,2.4777 -4.25,2.1825 -4.0065,-0.2993 -4.25,-0.1663 -4.25,2.3214 0,1.4515 0.635,3.2739 1.411,4.0499 0.776,0.7761 1.1723,2.3236 0.8806,3.439 -0.4162,1.5918 0.1525,2.2661 2.6442,3.1347 2.6217,0.9139 3.1213,1.5638 2.8693,3.7322 -0.1982,1.706 -1.2682,3.085 -3.0551,3.9375 -3.5619,1.6993 -3.5126,3.0907 0.1059,2.9878 3.5742,-0.1016 5.1441,0.8366 5.1441,3.074 0,2.5416 -2.0084,4.141 -5.2,4.141 -4.0673,0 -3.6735,2.7891 0.45,3.1866 3.7392,0.3606 4.9211,3.4995 2.3032,6.1173 -1.9465,1.9466 -1.9429,2.608 0.026,4.7842 1.258,1.39 1.3474,2.1796 0.4391,3.8768 -0.8567,1.6008 -0.848,3.5406 0.035,7.794 1.167,5.6211 0.6676,44.8781 -0.6779,53.2923 -0.3311,2.0707 -0.08,4.6325 0.5731,5.8533 1.6213,3.0295 0.411,5.9738 -2.7656,6.7275 -4.2082,0.9984 -8.6623,5.7776 -4.9333,5.2933 0.6875,-0.089 2.9688,-0.109 5.0695,-0.044 3.3616,0.1043 3.7813,0.3883 3.5,2.3685 -0.258,1.8171 -1.1337,2.3587 -4.551,2.8148 -7.147,0.9539 -7.2134,2.539 -0.1566,3.7378 3.4903,0.5929 4.4533,1.1999 4.707,2.9669 0.2846,1.9822 -0.092,2.2067 -3.5,2.0837 -5.6658,-0.2044 -12.3191,1.1546 -12.3191,2.5164 0,1.6255 8.4066,3.9962 11.4564,3.2307 1.8259,-0.4583 2.7335,-0.114 3.5063,1.33 1.3542,2.5303 -0.1675,3.5076 -5.0155,3.2216 -4.5658,-0.2694 -7.1561,2.1308 -4.0775,3.7784 1.0994,0.5883 3.3784,1.0697 5.0646,1.0697 2.7397,0 3.0657,0.319 3.0657,3 0,2.9218 -0.1266,3 -4.8604,3 -7.4994,0 -14.2554,1.1527 -13.8518,2.3633 0.5517,1.6552 4.9392,2.4117 7.4893,1.2914 1.6057,-0.7054 2.623,-0.6546 3.45,0.1724 0.6451,0.6451 2.6098,1.1729 4.3659,1.1729 3.3353,0 4.8112,1.783 3.7548,4.536 -0.4778,1.2451 -1.6781,1.4128 -6.3388,0.8855 -3.6185,-0.4094 -5.9889,-0.263 -6.3955,0.3949 -0.3554,0.575 -0.2451,1.2933 0.2451,1.5962 1.02,0.6304 0.3381,55.5105 -0.7457,60.0194 -0.3876,1.6126 -1.2115,3.1009 -1.8309,3.3073 -1.4036,0.4679 -1.7902,-8.175 -1.7855,-39.9203 l 0,-23.681 -2.75,-1.6255 c -2.3539,-1.3914 -2.75,-1.4133 -2.75,-0.1519 0,0.8105 -0.8708,3.505 -1.9351,5.9879 -1.5972,3.7262 -1.7021,4.7077 -0.6006,5.6219 1.0493,0.8708 3.3221,15.5141 2.8002,18.0414 -0.086,0.4148 -1.3574,24.8726 -1.4813,28.4882 -0.019,0.55 0.2867,2.2005 0.6791,3.6678 0.5598,2.0939 0.2814,2.899 -1.2938,3.742 -1.7154,0.9181 -2.131,0.7026 -2.8594,-1.4824 -0.4687,-1.4062 -0.5518,-6.4198 -0.1847,-11.1413 0.4007,-5.1536 0.2553,-9.7671 -0.3639,-11.5434 -0.6324,-1.8141 -0.7679,-6.7861 -0.3502,-12.8508 0.4081,-5.9254 0.3081,-9.8919 -0.2495,-9.8919 -1.4784,0 -4.5078,5.0976 -5.9427,10 -2.4286,8.2974 -2.532,9.188 -1.1645,10.0331 1.6719,1.0333 2.7555,11.5285 2.0099,19.4669 -0.4832,5.1455 -0.8483,6 -2.5635,6 -1.8647,0 -2.0191,-0.7609 -2.2827,-11.25 -0.1556,-6.1875 -0.6378,-11.25 -1.0718,-11.25 -0.4339,0 -1.7487,2.1375 -2.9218,4.75 -1.7004,3.7871 -2.0913,6.4222 -1.9282,12.9986 l 0.2045,8.2486 3.5,0.076 c 10.6167,0.2297 25.6632,1.0205 26.729,1.4049 0.676,0.2438 2.58,-0.1247 4.2312,-0.819 l 3.0022,-1.2624 0.3222,-31.2016 c 0.2387,-23.1049 0.6436,-31.523 1.5605,-32.4399 2.4847,-2.4847 3.1249,1.8165 3.311,22.2451 0.3192,35.0463 0.5032,41.4341 1.2546,43.5698 1.3937,3.9608 -0.7377,4.3197 -26.9529,4.5392 -24.3088,0.2035 -28.4612,0.667 -28.4546,3.1762 0,0.8774 3.6756,1.2932 13.225,1.4971 7.272,0.1552 16.833,0.4359 21.2468,0.6238 5.6668,0.2411 9.7147,-0.1784 13.775,-1.4275 5.285,-1.6258 5.7471,-1.6358 5.7146,-0.1237 -0.019,0.9048 -0.646,2.7476 -1.3923,4.0951 l -1.3568,2.4501 -22.8577,-0.1482 c -26.919,-0.1745 -35.6958,0.5183 -36.1419,2.8529 -0.2601,1.3613 1.3315,1.7048 10.4887,2.2638 5.9375,0.3624 19.257,0.6788 29.599,0.7031 15.8157,0.037 18.8956,0.2839 19.3828,1.5534 0.9643,2.513 -0.84,3.0186 -8.6864,2.4338 -4.125,-0.3074 -12.5898,-0.193 -18.8108,0.2542 -6.3022,0.453 -12.4721,0.4259 -13.9335,-0.061 -1.5149,-0.505 -5.1727,-0.4883 -8.66,0.04 -4.1374,0.6262 -6.5879,0.5699 -7.7868,-0.1788 -2.868,-1.7911 -3.4288,1.184 -3.1796,16.8695 0.1306,8.2207 -0.1878,14.9858 -0.7364,15.6468 -0.5315,0.6405 -1.8499,0.9335 -2.9297,0.6511 -1.819,-0.4755 -1.9637,-1.4322 -1.9637,-12.9801 0,-9.5266 -0.2948,-12.3694 -1.25,-12.0544 -2.6611,0.8778 -3.7056,5.2053 -3.2736,13.5632 0.2362,4.5698 0.012,9.4073 -0.4987,10.75 -1.0213,2.686 -0.3022,2.9423 7.0584,2.5159 2.4453,-0.1416 4.0905,0.4077 5.333,1.7806 1.73,1.9116 1.7286,2.0216 -0.036,2.9538 -2.9199,1.5426 -35.2828,2.4775 -36.9806,1.0683 -1.114,-0.9244 -1.9311,-0.6823 -3.8817,1.1501 -4.4611,4.191 -3.2509,4.5046 11.0293,2.8577 0.55,-0.063 7.4813,0.1402 15.4028,0.4525 13.8404,0.5456 17.7029,1.4566 15.5031,3.6565 -1.167,1.1669 -0.3111,1.1307 -25.9059,1.0968 -21.707,-0.029 -27.5,0.4818 -27.5,2.4233 0,1.9903 7.1378,2.5839 30.1503,2.5074 11.7423,-0.039 22.2186,0.053 23.2805,0.2036 2.436,0.3466 3.5164,-3.3423 2.4089,-8.2253 -0.4366,-1.925 -0.5259,-6.117 -0.1985,-9.3156 0.5277,-5.1556 0.3418,-6.0516 -1.6378,-7.8959 -2.0394,-1.9 -2.0857,-2.1629 -0.534,-3.0313 1.7129,-0.9586 58.9563,-1.9138 61.2806,-1.0225 1.7075,0.6547 1.5705,2.8019 -0.2978,4.6703 -1.0685,1.0685 -1.2718,2.097 -0.6567,3.3214 1.0212,2.0325 0.7894,13.1766 -0.5114,24.5861 -0.4899,4.2969 -0.5811,8.0039 -0.2028,8.2377 1.1747,0.726 2.1915,9.5905 2.0274,17.6749 -0.091,4.48568 0.3388,8.51858 1.0251,9.61748 2.9061,4.6534 2.0073,4.805 -29.0176,4.8952 -15.9938,0.047 -29.9879,-0.153 -31.0979,-0.4433 -2.3856,-0.6238 -2.6183,-2.5517 -0.5183,-4.2945 1.7621,-1.4624 2.0456,-9.70768 0.454,-13.20298 l -1.0459,-2.297 -30.8281,0.2542 c -25.1322,0.2072 -31.0384,8e-4 -31.9664,-1.1173 -2.6809,-3.2304 0.9171,-3.5963 33.0848,-3.3644 23.9054,0.1724 31.4379,-0.058 31.0946,-0.9524 -0.2492,-0.6489 -0.5296,-4.0239 -0.623,-7.5 l -0.17,-6.3201 -28.5,-0.1039 c -32.417,-0.1182 -36.738,0.1688 -37.4375,2.4863 -0.2685,0.8897 -0.536,4.9926 -0.5946,9.1176 -0.1763,12.4214 -1.0944,19.11128 -2.7076,19.73028 -2.4686,0.9473 -3.3283,-1.8833 -3.107,-10.23028 0.1723,-6.5009 -0.056,-7.9398 -1.2206,-7.6786 -2.7717,0.6219 -3.3198,2.2428 -3.7416,11.0656 -0.478,9.99708 -0.9574,9.36558 8.0356,10.58668 5.1101,0.6939 6.0914,1.3935 4.8262,3.4407 -0.606,0.9805 -5.1437,1.421 -17.684,1.7168 -9.2779,0.2188 -17.3734,0.5799 -17.9899,0.8024 -0.6166,0.2226 -4.651,-0.034 -8.9654,-0.5692 -6.6884,-0.8304 -8.4062,-0.7205 -11.6574,0.7455 -2.0972,0.9457 -3.6502,2.2079 -3.4512,2.8048 0.4585,1.3751 16.1516,1.1683 19.8422,-0.2615 1.4559,-0.564 2.911,-0.7617 3.2335,-0.4392 0.7371,0.7371 7.7196,1.1451 23.3505,1.3643 8.9901,0.1261 12.5337,0.5359 13.3725,1.5466 0.8531,1.0279 0.8539,1.7212 0,2.746 -0.8506,1.0249 -4.4782,1.3959 -14.3725,1.4697 -23.2165,0.1733 -22.6941,0.076 -18.8937,3.5155 2.0754,1.8781 5.0416,2.124 20.5023,1.6995 8.8291,-0.2424 11.1367,0 12.4232,1.2823 1.4399,1.4399 1.3652,1.6593 -0.8433,2.4755 -3.1098,1.1493 -58.0094,1.3694 -59.837,0.2399 -0.7577,-0.4683 -1.1011,-1.5721 -0.7631,-2.4528 0.5095,-1.3277 2.2496,-1.5787 10.1799,-1.4685 5.261,0.073 9.7572,-0.059 9.9916,-0.2932 0.2344,-0.2344 0.1574,-1.4538 -0.1711,-2.7098 -0.5767,-2.2054 -0.9268,-2.2737 -10.2103,-1.9917 -9.0982,0.2764 -9.666,0.1734 -10.6003,-1.9226 -1.3323,-2.9891 -3.9131,-2.9604 -3.1762,0.035 0.4084,1.6605 1.8867,30.043 2.1428,41.141 0.011,0.49 -0.7546,1.3799 -1.7019,1.9775 -3.1451,1.9839 -4.2153,-0.7001 -4.4437,-11.1453 -0.117,-5.3478 -0.3371,-14.5101 -0.4891,-20.3607 -0.2015,-7.7533 0.086,-11.0746 1.0618,-12.25 0.7361,-0.8869 0.9179,-1.6125 0.4039,-1.6125 -0.5139,0 -2.0315,1.4625 -3.3724,3.25 -2.3866,3.1813 -2.4381,3.6555 -2.4381,22.4484 0,14.0245 -0.3368,19.5357 -1.25,20.45 -3.1765,3.1806 -4.3533,-4.4393 -5.1703,-33.4779 -0.073,-2.5847 -0.3282,-2.7749 -2.9529,-2.1984 -2.0916,0.4594 -3.0351,0.209 -3.4686,-0.9205 -0.6409,-1.6713 -2.6577,-2.1481 -2.6577,-0.6283 0,0.5078 1.0498,2.1953 2.3329,3.75 2.4727,2.9961 2.6685,4.5734 3.0059,24.2148 0.1378,8.0234 -0.097,9.5497 -1.6173,10.5 -1.3697,0.8563 -1.9841,0.7821 -2.6732,-0.323 -1.5778,-2.5299 -2.2525,-12.5932 -1.1251,-16.78 0.8588,-3.1891 0.7748,-4.7636 -0.4046,-7.5864 -1.656,-3.9634 -3.0572,-5.2543 -4.0172,-3.7009 -0.3503,0.5667 -0.6535,6.9063 -0.6739,14.0879 -0.031,10.8113 -0.3018,13.1591 -1.5768,13.6483 -3.1348,1.203 -4.347,-2.683 -4.1764,-13.3885 0.089,-5.585 -0.1429,-10.6475 -0.5153,-11.25 -3.1678,-5.1257 -5.8965,8.9964 -3.6609,18.9466 1.4628,6.5105 -0.9579,8.8981 -4.9621,4.8939 -1.7823,-1.7823 -1.9715,-2.804 -1.3863,-7.4874 0.3727,-2.9829 0.3802,-7.0086 0.017,-8.946 -0.6008,-3.2026 -0.8507,-3.4209 -2.7512,-2.4037 -1.9224,1.0288 -2.0408,1.7043 -1.4744,8.4054 0.6768,8.0069 -0.2462,9.9097 -4.5379,9.3551 -1.2667,-0.1637 -2.9222,0.088 -3.679,0.5583 -0.7568,0.4709 -3.9068,1.0155 -7,1.2103 -14.2144,0.8954 -33.1616,1.5577 -50.124,1.752 -10.175,0.1166 -21.5911,0.771 -25.3691,1.4543 -5.1537,0.9319 -7.7135,0.9635 -10.25,0.1264 -2.5154,-0.8302 -4.2832,-0.818 -6.9054,0.047 -2.8326,0.9348 -4.387,0.8693 -7.9179,-0.3338 -3.9129,-1.3333 -4.8671,-1.3303 -8.7255,0.027 -3.2978,1.1602 -10.6587,1.6406 -30.8321,2.0121 -14.575,0.2684 -27.4,0.4597 -28.5,0.4251 -1.1,-0.035 -6.18,-0.097 -11.2888,-0.139 -8.7461,-0.072 -9.3515,-0.2135 -10.3603,-2.4276 -1.0506,-2.3058 -1.1082,-2.3148 -2.9612,-0.4618 -2.7232,2.7233 -6.7216,2.462 -7.8527,-0.5131 -1.013,-2.6643 -2.9672,-4.306 -3.162,-2.6562 -0.2386,2.022 -0.4098,2.5657 -1.1993,3.809 -1.1176,1.7601 -3.6838,1.5527 -5.9289,-0.4792 -1.811,-1.6389 -1.9613,-1.6389 -2.8785,0 -1.114,1.9907 -4.9059,2.2916 -6.6683,0.5292 -0.66,-0.66 -1.2,-2.2084 -1.2,-3.4409 0,-1.2326 -0.45,-2.5191 -1,-2.8591 -0.5671,-0.3505 -1,0.4897 -1,1.941 0,3.0503 -3.4368,6.8123 -5.8115,6.3613 -1.2727,-0.2417 -1.8865,-1.919 -2.4927,-6.8114 -1.435,-11.5828 -2.3319,-13.3735 -2.5459,-5.0829 -0.313,12.1346 -1.3283,13.8321 -6.4351,10.7594 -1.7807,-1.0715 -8.1919,-1.2065 -32.7148,-0.6888 -16.9175,0.3571 -31.0229,0.256 -31.6742,-0.2269 -0.6458,-0.4789 -2.7445,-0.5761 -4.6639,-0.2161 -5.2089,0.9772 -5.8482,-1.003 -5.1889,-16.0718 0.3015,-6.8901 0.5967,-12.8505 0.656,-13.2456 0.059,-0.395 0.055,-4.4448 -0.011,-8.9995 -0.094,-6.5971 -0.444,-8.4064 -1.7193,-8.8958 -2.8157,-1.0805 -3.4151,1.8942 -2.894,14.3637 0.3347,8.009 0.1474,12.4102 -0.5465,12.839 -0.7357,0.4547 -0.7385,1.0347 -0.01,1.9133 1.2496,1.5057 1.1321,18.5579 -0.1392,20.2079 -2.8483,3.6966 -8.534,-3.7279 -6.5886,-8.6036 1.3917,-3.488 1.0332,-41.3902 -0.4218,-44.5835 -1.3953,-3.0624 -2.4397,-3.1357 -2.9884,-0.2097 -0.57,3.0404 -0.035,39.0804 0.6669,44.8846 0.3081,2.549 0.1126,5.8115 -0.4343,7.25 -1.0685,2.8103 -4.0666,3.4978 -5.8553,1.3427 z m 62.3756,-8.0085 c 22.3746,-0.088 28.7547,-0.398 29.6191,-1.4395 0.6059,-0.7302 0.9251,-1.5032 0.7092,-1.7179 -0.9155,-0.9105 -56.8225,-1.4835 -57.376,-0.5881 -0.3705,0.5996 -1.5211,0.5953 -3.117,-0.011 -3.8651,-1.4695 -4.3995,-1.2123 -4.3995,2.1177 0,2.9067 0.1696,3.0422 3.0234,2.4154 1.6629,-0.3652 15.8562,-0.7145 31.5408,-0.7761 z m 263.767,-3.3043 c 8.7072,-0.2335 15.5959,0.011 16.6829,0.5931 1.4716,0.7876 1.9812,0.5826 2.4833,-0.9993 1.2722,-4.0084 0.1851,-4.1895 -21.8555,-3.6395 -21.323,0.532 -29.5176,1.7583 -30.4504,4.5569 -0.3816,1.1447 1.1489,1.2535 8.9239,0.6341 5.1615,-0.4111 16.0587,-0.9265 24.2158,-1.1453 z m -264.5476,-7.5495 c 16.656,-0.091 30.5061,-0.5247 30.7781,-0.9647 1.4335,-2.3194 -4.9583,-2.8839 -32.2929,-2.8516 -15.8893,0.019 -29.65,-0.2577 -30.5793,-0.6142 -1.3674,-0.5248 -1.6895,-0.043 -1.6895,2.526 0,2.567 0.3348,3.0687 1.75,2.6218 0.9625,-0.3038 15.3776,-0.6266 32.0336,-0.7173 z m -22.0294,-9.7037 c 4.8102,0.093 9.7799,-0.167 11.0438,-0.5784 1.2639,-0.4114 2.8389,-0.3222 3.5,0.1983 1.5379,1.2108 4.8579,1.217 6.3896,0.012 0.6531,-0.5139 3.2406,-0.6265 5.75,-0.2502 5.3914,0.8085 6.1116,-0.6516 1.3124,-2.661 -2.4023,-1.0058 -7.6576,-1.2928 -20.1479,-1.1002 -14.6442,0.2258 -17.1449,0.037 -18.75,-1.4155 -1.7821,-1.6128 -1.8521,-1.4623 -1.8521,3.9788 l 0,5.655 2.0042,-2.0042 c 1.7313,-1.7313 3.1954,-1.9812 10.75,-1.8346 z m 221.3531,-4.0557 c 10.234,-1.1323 19.234,-2.2987 20,-2.5919 0.766,-0.2932 4.3177,-0.9176 7.8927,-1.3876 8.4184,-1.1067 35.1061,-8.1713 46,-12.1769 4.675,-1.7189 11.425,-4.0424 15,-5.1633 3.575,-1.1209 7.6944,-2.6563 9.1543,-3.4119 1.4598,-0.7557 3.5367,-1.3739 4.6151,-1.3739 1.0785,0 3.0609,-0.8652 4.4053,-1.9228 1.3444,-1.0575 5.0136,-3.1392 8.1537,-4.626 3.1401,-1.4867 5.9524,-3.0965 6.2495,-3.5772 0.2971,-0.4807 1.5779,-0.874 2.8463,-0.874 1.2683,0 3.3793,-0.8272 4.6909,-1.8383 1.3117,-1.01098 5.7599,-3.81278 9.8849,-6.22608 9.1829,-5.3724 20,-13.0077 20,-14.117 0,-0.4502 0.6405,-0.8186 1.4233,-0.8186 0.7828,0 2.7602,-1.125 4.3943,-2.5 1.6341,-1.375 3.4828,-2.5 4.1081,-2.5 0.6254,0 1.4047,-0.6975 1.7318,-1.55 0.3272,-0.8525 2.9006,-3.0278 5.7187,-4.8341 11.9932,-7.6871 49.2443,-43.9643 55.1238,-53.6828 0.55,-0.9091 2.3201,-3.6285 3.9336,-6.043 5.9879,-8.9608 10.7887,-16.7856 19.5654,-31.8901 0.4794,-0.825 3.3863,-6.675 6.4598,-13 3.0735,-6.325 7.1442,-14.1204 9.0459,-17.3231 1.9017,-3.2027 4.6554,-9.5027 6.1193,-14 1.4639,-4.4973 3.7853,-11.1019 5.1586,-14.6769 1.3733,-3.575 3.127,-9.2 3.897,-12.5 0.7701,-3.3 2.2281,-7.8 3.2401,-10 2.1469,-4.6673 4.5645,-14.884 6.0342,-25.5 0.571,-4.125 1.6732,-12 2.4493,-17.5 3.0892,-21.8934 3.6636,-51.577 1.5093,-78 -1.4883,-18.254 -1.4944,-18.4741 -0.5794,-21.1446 0.4953,-1.4456 0.1926,-2.6868 -0.9285,-3.808 -2.0145,-2.0144 -3.1187,-9.9881 -1.52,-10.9761 2.0049,-1.239 1.1758,-5.1879 -2.0136,-9.5907 -1.7209,-2.3757 -3.7123,-6.8307 -4.4253,-9.9 -2.6253,-11.3021 -7.9979,-29.6519 -9.832,-33.5806 -0.7703,-1.65 -2.2992,-5.475 -3.3974,-8.5 -4.8821,-13.4467 -10.6306,-27.6243 -11.7585,-29 -0.6764,-0.825 -2.371,-3.7783 -3.7658,-6.5628 -1.3948,-2.7846 -3.2461,-5.6522 -4.114,-6.3725 -0.8679,-0.7203 -1.578,-1.9445 -1.578,-2.7204 0,-1.8323 -4.6513,-11.0108 -6.0034,-11.8464 -0.5727,-0.354 -2.3533,-3.1983 -3.9569,-6.3208 -1.6035,-3.1224 -4.3046,-7.2521 -6.0022,-9.1771 -1.6977,-1.925 -3.3494,-4.5125 -3.6705,-5.75 -0.3211,-1.2375 -0.985,-2.25 -1.4754,-2.25 -0.4904,0 -0.8916,-0.8776 -0.8916,-1.9503 0,-1.0727 -0.6152,-2.3102 -1.3671,-2.75 -0.7519,-0.4398 -3.449,-4.0622 -5.9935,-8.0497 -2.5444,-3.9875 -5.0489,-7.25 -5.5655,-7.25 -0.5165,0 -1.2184,-0.88 -1.5598,-1.9556 -0.3414,-1.0756 -2.3967,-4.1049 -4.5674,-6.7317 -2.1707,-2.6268 -3.9467,-5.154 -3.9467,-5.616 0,-0.462 -1.9605,-2.9453 -4.3566,-5.5184 -16.5201,-17.7402 -20.4268,-22.0797 -22.6434,-25.1516 -3.3314,-4.6168 -6.8523,-7.8943 -10.5,-9.774 -1.65,-0.8502 -5.7,-3.8922 -9,-6.7598 -3.3,-2.8677 -7.6305,-6.2892 -9.6234,-7.6034 -10.7908,-7.1161 -13.8766,-9.4785 -13.8766,-10.6235 0,-0.6963 -1.1113,-1.266 -2.4696,-1.266 -1.3583,0 -4.1708,-0.9735 -6.25,-2.1634 -2.0792,-1.1898 -5.1304,-2.7835 -6.7804,-3.5416 -1.65,-0.758 -4.35,-2.106 -6,-2.9955 -8.3776,-4.5162 -16.488,-8.2995 -17.7921,-8.2995 -0.8047,0 -2.0281,-0.6809 -2.7189,-1.5132 -0.6907,-0.8323 -1.7583,-1.4224 -2.3724,-1.3113 -1.9007,0.3436 -7.9403,-1.3303 -11.7428,-3.2547 -1.9944,-1.0093 -3.8582,-1.603 -4.1419,-1.3194 -0.2837,0.2837 -2.2519,-0.2259 -4.3738,-1.1324 -5.2548,-2.2447 -11.4909,-4.2458 -20.0379,-6.4296 -3.9488,-1.009 -7.5831,-2.0838 -8.0761,-2.3886 -1.0044,-0.6207 -18.8493,-3.5571 -24.8564,-4.0901 -2.1382,-0.1897 -8.6127,-0.9136 -14.3877,-1.6087 -5.775,-0.695 -20.85,-1.4136 -33.5,-1.5967 -12.65,-0.1832 -23.675,-0.3729 -24.5,-0.4216 -1.8516,-0.1093 -11.3531,0.8605 -15.7684,1.6094 -1.7976,0.305 -7.6476,0.7549 -13,0.9999 -9.518,0.4357 -16.2257,1.128 -19.2316,1.9849 -2.9203,0.8324 -16.563,2.7177 -21,2.9019 -2.475,0.1027 -5.4829,0.7231 -6.6843,1.3785 -1.2013,0.6554 -3.5699,1.1917 -5.2635,1.1917 -1.6937,0 -3.8607,0.4077 -4.8158,0.9061 -0.955,0.4983 -4.6614,1.6795 -8.2364,2.6249 -8.226,2.1754 -18.5471,5.8412 -27.3993,9.7315 -5.5766,2.4508 -7.2516,2.8121 -8.7364,1.8848 -2.4519,-1.5312 -2.9165,-1.4469 -2.2075,0.4007 0.6803,1.773 -1.1674,3.3969 -7.6568,6.7292 -2.475,1.2709 -7.5673,4.091 -11.3163,6.2668 -3.749,2.1758 -8.1053,4.631 -9.6807,5.456 -1.5754,0.825 -4.5831,2.7617 -6.6837,4.3038 -5.9835,4.3925 -14.4033,9.6962 -15.3931,9.6962 -0.4946,0 -3.7178,2.3684 -7.1627,5.2631 -3.4449,2.8947 -7.6135,6.1223 -9.2635,7.1725 -3.5163,2.238 -11.536,9.0839 -22.9189,19.5644 -4.4802,4.125 -9.9313,9.128 -12.1135,11.1177 -3.816,3.4795 -19.3795,19.6461 -28.2176,29.311 -2.3375,2.5562 -4.25,5.0792 -4.25,5.6066 0,0.5274 -1.5009,2.6477 -3.3354,4.7118 -1.8345,2.0641 -4.4067,5.7779 -5.716,8.2529 -1.3093,2.475 -3.139,5.4 -4.0659,6.5 -2.4727,2.9344 -6.338,9.7598 -11.6094,20.5 -2.5645,5.225 -6.077,11.75 -7.8056,14.5 -2.9557,4.7024 -9.1789,17.0598 -14.8562,29.5 -1.3805,3.025 -3.1847,8.0929 -4.0092,11.262 -1.836,7.0569 -2.2374,7.738 -4.5606,7.738 -1.425,0 -1.9459,0.9591 -2.3083,4.25 -0.5346,4.8552 -4.762,21.1054 -7.194,27.6537 -0.8995,2.422 -1.3939,5.0331 -1.0987,5.8024 0.2952,0.7693 -0.09,2.3876 -0.8569,3.5963 -1.248,1.9679 -2.739,8.8263 -5.5863,25.6976 -2.8312,16.7754 -3.2868,22.2928 -2.1737,26.324 0.6655,2.4103 0.5388,4.2866 -0.4479,6.6333 -0.7707,1.8329 -1.3759,6.7041 -1.3759,11.0741 0,7.2926 -0.1734,7.9281 -2.6571,9.7373 l -2.6571,1.9356 2.6276,0.6595 2.6276,0.6595 -0.1672,11.2383 c -0.092,6.1811 0.1077,13.9384 0.4437,17.2384 0.3359,3.3 0.9002,8.925 1.2539,12.5 0.6765,6.8372 5.0529,27.878 6.6138,31.7971 0.5031,1.2633 0.9148,4.0826 0.9148,6.265 0,4.6324 2.814,15.7657 4.5339,17.9379 0.6532,0.825 1.7215,4.916 2.3739,9.0911 1.1213,7.1754 4.4885,17.1792 6.7609,20.0867 0.5684,0.7272 2.2529,4.0222 3.7435,7.3222 4.544,10.0602 7.9665,16.8513 10.077,19.9958 1.106,1.6477 2.8514,4.5727 3.8789,6.5 1.0274,1.9273 3.0611,5.3042 4.5193,7.5042 1.4583,2.2 4.3959,7.375 6.528,11.5 2.1322,4.125 5.9485,9.925 8.4807,12.8889 2.5321,2.9639 6.3539,7.6889 8.4927,10.5 4.166,5.4755 11.6713,14.1558 14.3623,16.6111 3.775,3.4442 13.7514,12.7805 17.6314,16.5 6.6232,6.3494 17.8535,15.5 19.0227,15.5 0.9365,0 11.6293,7.512 15.5948,10.9558 1.925,1.6717 3.9075,3.0406 4.4056,3.0418 0.4981,10e-4 2.2981,1.0625 4,2.3581 1.7019,1.2957 4.8944,3.2728 7.0944,4.3936 2.2,1.1208 4.8342,2.9603 5.8537,4.0876 1.0195,1.1274 3.2695,2.3495 5,2.7159 1.7305,0.3664 4.5788,1.7419 6.3296,3.0567 1.7508,1.3148 3.4472,2.39048 3.7698,2.39048 0.3227,0 2.2652,1.0559 4.3168,2.3465 2.0515,1.2905 5.3442,2.8762 7.317,3.5237 1.9728,0.6475 4.5517,2.0761 5.7309,3.1747 1.1792,1.0986 3.6151,2.272 5.4131,2.6075 1.798,0.3355 4.6191,1.405 6.2691,2.3768 1.65,0.9717 7.05,3.2114 12,4.9771 4.95,1.7656 10.8,3.8525 13,4.6376 2.2,0.7851 4.675,1.7097 5.5,2.0547 3.5167,1.4706 14.9192,4.5211 20,5.3506 3.025,0.4938 10.45,2.068 16.5,3.4983 6.05,1.4302 14.6,3.0023 19,3.4936 4.4,0.4913 11.733,1.3035 16.2955,1.8049 4.5626,0.5015 8.5277,1.1439 8.8115,1.4277 0.2838,0.2838 14.7758,0.3752 32.2045,0.2032 23.5265,-0.2321 36.4812,-0.8429 50.2958,-2.3714 z m -219.8572,-5.6055 c 5.9125,0 10.75,-0.2615 10.75,-0.581 -10e-5,-0.3196 -1.2376,-1.2077 -2.7501,-1.9737 -1.5125,-0.7659 -3.832,-2.1988 -5.1543,-3.1843 -2.117,-1.5775 -2.5972,-1.6171 -4.0182,-0.3311 -1.2546,1.1353 -2.89,1.2873 -7.3457,0.6827 l -5.7318,-0.7778 0,3.9396 c 0,3.4118 0.2344,3.8248 1.75,3.0826 0.9625,-0.4714 6.5875,-0.857 12.5001,-0.857 z m -0.067,-10.7167 c -0.7176,-0.7175 -1.1834,-0.7766 -1.1834,-0.15 0,1.3348 1.1827,2.5174 1.8501,1.85 0.2841,-0.2841 -0.016,-1.0491 -0.6667,-1.7 z m -19.1833,-5.7833 c 0,-0.55 -1.2375,-0.9931 -2.75,-0.9847 -2.1429,0.012 -2.4189,0.2293 -1.25,0.9847 1.9565,1.2644 4,1.2644 4,0 z m 426.9847,-14.75 c -0.01,-3.16248 -0.467,-6.42498 -1.019,-7.24998 -1.53,-2.2865 -3.9657,1.4658 -3.9657,6.10928 0,2.0499 -0.2731,4.4389 -0.607,5.3089 -0.4732,1.2332 0.078,1.5818 2.5,1.5818 l 3.107,0 -0.015,-5.75 z m 94.0153,4.2071 c 0.275,-0.1465 0.4117,-4.4718 0.3039,-9.61168 -1.0694,-50.9639 -1.089,-51.3359 -2.7227,-51.6693 -0.873,-0.1782 -1.8363,0.325 -2.1406,1.1182 -0.3044,0.7931 -0.6405,14.9819 -0.747,31.5305 l -0.1936,30.08838 2.5,-0.5948 c 1.375,-0.3272 2.725,-0.7148 3,-0.8613 z m 20.6229,-27.97928 c -0.1069,-24.7087 0.084,-28.6123 1.463,-29.992 3.5731,-3.5737 4.0259,-0.139 3.9455,29.9316 l -0.076,28.58258 5.0225,0.1875 c 2.7624,0.1031 6.2004,0.2156 7.6401,0.25 l 2.6177,0.062 0.25,-12.99998 c 0.3067,-15.9516 0.2993,-14.467 0.1446,-29 -0.07,-6.6 0.1777,-13.6672 0.551,-15.7049 0.5719,-3.1219 0.375,-3.8013 -1.2511,-4.3174 -2.5859,-0.8207 -5.9419,0.3272 -5.3635,1.8346 0.2554,0.6654 0.5699,13.9175 0.699,29.4491 0.2169,26.09848 0.1047,28.23918 -1.4802,28.23888 -3.2052,-6e-4 -3.7986,-3.5557 -3.872,-23.19838 -0.1167,-31.2879 -0.065,-32.9138 1.0891,-34.3045 0.8487,-1.0227 0.5975,-1.4897 -1.0894,-2.0251 -2.4991,-0.7932 -26.7039,-1.3479 -27.4233,-0.6285 -0.2597,0.2597 -0.01,1.032 0.5602,1.7161 0.6543,0.7884 1.049,11.715 1.0779,29.8365 0.025,15.726 0.3904,28.80568 0.8117,29.06608 0.4213,0.2604 1.56,-0.1071 2.5303,-0.8167 1.6011,-1.1707 1.7848,-3.8086 1.9857,-28.50628 0.1551,-19.0688 0.5691,-27.5639 1.383,-28.3778 2.8845,-2.8846 3.348,1.0972 3.5047,30.105 0.1346,24.94408 0.3703,29.12928 1.657,29.42238 3.6604,0.834 3.7482,0.1356 3.6229,-28.81128 z m -135.6229,27.52218 c 0,-0.55 -0.4766,-1 -1.059,-1 -0.5825,0 -0.7809,0.45 -0.441,1 0.3399,0.55 0.8165,1 1.059,1 0.2426,0 0.441,-0.45 0.441,-1 z m 10.9003,-0.25 c -0.055,-0.6875 -0.4417,-2.375 -0.8597,-3.75 l -0.7599,-2.5 -1.1404,2.8151 c -1.5836,3.9095 -1.4413,4.6849 0.8597,4.6849 1.1,0 1.9551,-0.5625 1.9003,-1.25 z m -428.9003,-3.357 c 0,-0.2161 -0.675,-0.393 -1.5,-0.393 -0.825,0 -1.5,0.4359 -1.5,0.9686 0,0.5327 0.675,0.7096 1.5,0.393 0.825,-0.3166 1.5,-0.7524 1.5,-0.9686 z m 16,0.166 c 0,-0.2425 -0.45,-0.7191 -1,-1.059 -0.55,-0.3399 -1,-0.1415 -1,0.441 0,0.5824 0.45,1.059 1,1.059 0.55,0 1,-0.1984 1,-0.441 z m -32,-12.95198 c 0,-0.2162 -0.6984,-0.661 -1.5519,-0.9886 -0.89,-0.3415 -1.2914,-0.1738 -0.941,0.393 0.5872,0.9503 2.4929,1.4055 2.4929,0.5956 z m 506,-41.607 c 0,-0.55 -0.1984,-1 -0.441,-1 -0.2425,0 -0.7191,0.45 -1.059,1 -0.3399,0.55 -0.1415,1 0.441,1 0.5824,0 1.059,-0.45 1.059,-1 z m 10.393,-0.5818 c 0.9196,-2.3965 0.6994,-6.7343 -0.4273,-8.4182 -1.6437,-2.4565 -4.191,1.6777 -3.3769,5.4805 1.0437,4.8754 2.5996,6.0768 3.8042,2.9377 z m -590.9001,-29.4068 c 0.3504,-0.5668 -0.051,-0.7345 -0.941,-0.393 -1.7324,0.6648 -2.0493,1.3816 -0.6109,1.3816 0.5175,0 1.2159,-0.4448 1.5519,-0.9886 z m 601.0071,-3.0114 c 0.3399,-0.55 0.1415,-1 -0.441,-1 -0.5824,0 -1.059,0.45 -1.059,1 0,0.55 0.1984,1 0.441,1 0.2425,0 0.7191,-0.45 1.059,-1 z m -626.0528,-31.0854 c -0.322,-0.521 -1.0116,-0.6838 -1.5326,-0.3618 -0.521,0.322 -0.6838,1.0116 -0.3618,1.5326 0.322,0.521 1.0116,0.6838 1.5326,0.3618 0.521,-0.322 0.6838,-1.0116 0.3618,-1.5326 z m -15.6347,-13.8521 c 0.25,-0.75 -0.125,-1.125 -0.875,-0.875 -0.7219,0.2406 -1.5094,1.0281 -1.75,1.75 -0.25,0.75 0.125,1.125 0.875,0.875 0.7219,-0.2406 1.5094,-1.0281 1.75,-1.75 z m 8.5691,-1.6144 c 0.3414,-0.89 0.1738,-1.2914 -0.3931,-0.941 -0.5437,0.336 -0.9885,1.0344 -0.9885,1.5519 0,1.4384 0.7168,1.1215 1.3816,-0.6109 z m -8.3816,-10.0647 c 0,-0.7609 -0.7016,-1.3834 -1.559,-1.3834 -0.8575,0 -1.2809,0.45 -0.941,1 0.3399,0.55 0.1415,1 -0.441,1 -0.5824,0 -1.059,0.4079 -1.059,0.9064 0,0.4985 0.9,0.671 2,0.3833 1.1,-0.2876 2,-1.1455 2,-1.9063 z m -7.5,-16.3834 c 0.3399,-0.55 0.1415,-1 -0.441,-1 -0.5824,0 -1.059,0.45 -1.059,1 0,0.55 0.1984,1 0.441,1 0.2425,0 0.7191,-0.45 1.059,-1 z m 5.1862,-6.0258 c 0.1772,-1.1614 -0.2697,-1.9742 -1.0855,-1.9742 -1.8576,0 -2.7184,2.4822 -1.3392,3.8615 1.3209,1.3209 2.0178,0.7784 2.4247,-1.8873 z m -17.526,-8.522 c -1.3069,-2.8683 -0.8093,-4.4522 1.3988,-4.4522 0.7926,0 1.441,-0.45 1.441,-1 0,-2.4713 -6.5774,1.2914 -7.3592,4.2099 -1.0155,3.7907 -0.7453,4.6338 1.6092,5.0216 3.287,0.5414 4.2871,-0.7574 2.9102,-3.7793 z m -11.6106,-1.2253 c 0.8357,-1.9999 1.2688,-4.7817 0.9625,-6.1816 -0.3062,-1.3999 -0.1503,-5.4703 0.3466,-9.0453 0.7089,-5.101 0.5902,-7.1119 -0.5514,-9.3429 -1.7545,-3.4286 -2.1105,-3.1463 -4.3409,3.4421 -1.3514,3.9918 -1.518,5.9411 -0.7465,8.7349 0.5461,1.978 0.7226,5.5687 0.3922,7.9795 -0.6728,4.9084 0.1263,9.4661 1.5097,8.6111 0.4997,-0.3088 1.5922,-2.1978 2.4278,-4.1978 z m 22.7361,2.7575 c -0.5632,-2.1535 -2.2857,-3.7551 -2.2857,-2.1252 0,0.5375 -0.2731,1.689 -0.607,2.559 -0.4296,1.1196 -0.019,1.5818 1.4064,1.5818 1.5262,0 1.8858,-0.4877 1.4863,-2.0156 z m -6.2327,-22.0834 c 0.9863,-1.843 0.9123,-1.981 -0.6068,-1.1308 -0.9517,0.5325 -2.573,0.7479 -3.6031,0.4785 -1.408,-0.3682 -1.7185,-0.087 -1.251,1.1308 0.8807,2.2949 4.129,2.0102 5.4609,-0.4785 z m -10.3238,-60.5052 c -0.3323,-0.3323 -1.1948,-0.3678 -1.9167,-0.079 -0.7977,0.3192 -0.5608,0.5562 0.6042,0.6042 1.0541,0.043 1.6448,-0.1929 1.3125,-0.5252 z m -0.1881,-4.3293 c -0.3625,-0.5866 -1.1377,-1.0665 -1.7226,-1.0665 -0.6631,0 -0.5872,0.5738 0.2016,1.5242 1.3715,1.6526 2.5973,1.2838 1.521,-0.4577 z m -3.9661,-3.5636 c -0.073,-3.4078 -0.8789,-4.4382 -2.0231,-2.5868 -0.5278,0.8539 0.9752,6.0839 1.7484,6.0839 0.1924,0 0.316,-1.5737 0.2747,-3.4971 z m -1.575,-41.5029 c 0,-1.3333 -0.6667,-2 -2,-2 -1.9272,0 -2.7099,1.9568 -1.3333,3.3333 1.3765,1.3766 3.3333,0.5939 3.3333,-1.3333 z m 4.4573,-6.9309 c 0.8229,-1.3315 -1.2511,-2.3622 -3.2272,-1.6039 -1.4408,0.5529 -1.4689,0.7721 -0.2021,1.5733 1.8762,1.1865 2.7103,1.194 3.4293,0.031 z m 0.1607,-7.5161 c 0.7391,-1.926 -2.6617,-6.482 -4.868,-6.5216 -2.1463,-0.039 -2.2592,1.3011 -0.25,2.9686 0.825,0.6847 1.5,2.0898 1.5,3.1224 0,2.2034 2.8094,2.5378 3.618,0.4306 z m 5.1528,-9.3655 c 0.2177,-0.6531 -0.3166,-1.1875 -1.1875,-1.1875 -0.8708,0 -1.5833,0.7125 -1.5833,1.5833 0,1.766 2.1528,1.4584 2.7708,-0.3958 z m -3.7708,-5.1875 c 0,-0.55 -0.6484,-1 -1.441,-1 -0.7925,0 -1.7191,0.45 -2.059,1 -0.3399,0.55 0.3085,1 1.441,1 1.1324,0 2.059,-0.45 2.059,-1 z m 717,-0.5 c 0,-0.9127 -0.9308,-1.5 -2.3776,-1.5 -1.3076,0 -2.9377,0.675 -3.6224,1.5 -1.0676,1.2864 -0.729,1.5 2.3776,1.5 2.5532,0 3.6224,-0.4427 3.6224,-1.5 z m -710.3781,-0.8149 c 0.9629,0.3696 1.3781,-0.2916 1.3781,-2.1947 0,-2.4674 -0.2587,-2.6604 -2.75,-2.0516 -1.5125,0.3695 -3.7838,0.6503 -5.0473,0.6238 -2.2525,-0.047 -2.2427,-8e-4 0.5,2.3751 1.5566,1.3484 3.184,2.0452 3.6692,1.5709 0.4795,-0.4688 1.492,-0.6143 2.25,-0.3235 z m -5.8546,-9.8833 c -0.4995,-1.4984 -2.2337,-1.0686 -2.5899,0.6419 -0.2226,1.0688 0.1781,1.3571 1.2922,0.9296 0.8882,-0.3408 1.4722,-1.048 1.2977,-1.5715 z m 713.7301,-5.7976 c 0.6899,-1.1164 -4.1562,-3.6787 -5.1252,-2.7098 -0.3406,0.3407 -0.3528,1.3137 -0.027,2.1625 0.6598,1.7194 4.1958,2.095 5.1523,0.5473 z m -680.6623,-82.3122 c -0.7571,-1.4147 -1.3209,-1.7347 -1.597,-0.9064 -0.6263,1.8789 0.5854,4.4415 1.7575,3.7171 0.6657,-0.4114 0.611,-1.3693 -0.1605,-2.8107 z m -3.9184,-8.3327 c 0.2291,-0.1976 -0.7568,-0.3593 -2.191,-0.3593 -1.4342,0 -2.8969,0.468 -3.2505,1.0401 -0.5818,0.9414 4.2633,0.3352 5.4415,-0.6808 z m 12.0833,-43.8593 c 0,-0.825 -0.45,-1.5 -1,-1.5 -0.55,0 -1,0.675 -1,1.5 0,0.825 0.45,1.5 1,1.5 0.55,0 1,-0.675 1,-1.5 z m 637.3812,-20.25 c -0.7358,-3.0801 -2.1839,-5.25 -3.5036,-5.25 -1.2211,0 -1.0951,2.4286 0.2829,5.4529 1.6227,3.5615 4.0829,3.4065 3.2207,-0.2029 z m -614.3812,-0.75 c 0.7175,-0.8646 0.8147,-1.5 0.2294,-1.5 -0.5585,0 -1.2744,0.675 -1.591,1.5 -0.3166,0.825 -0.4199,1.5 -0.2295,1.5 0.1904,0 0.9064,-0.675 1.5911,-1.5 z m 4,-3.059 c 0,-0.8575 -0.45,-1.2809 -1,-0.941 -0.55,0.3399 -1,1.0415 -1,1.559 0,0.5176 0.45,0.941 1,0.941 0.55,0 1,-0.7016 1,-1.559 z m 583.9847,-11.191 c -0.032,-1.5684 -1.575,-3.007 -3.9847,-3.7151 l -2.5,-0.7346 2.5,2.5394 c 2.5294,2.5693 4.0127,3.2804 3.9847,1.9103 z m -577.2337,-22.7697 c -0.067,-4.4648 -1.7409,-6.4128 -3.583,-4.1709 -1.0672,1.299 -0.7869,8.8802 0.3993,10.7994 1.311,2.1213 3.2548,-1.9258 3.1837,-6.6285 z m 9.749,-2.4803 c 0.3399,-0.55 -0.057,-1 -0.882,-1 -0.825,0 -1.7781,0.45 -2.118,1 -0.3399,0.55 0.057,1 0.882,1 0.825,0 1.7781,-0.45 2.118,-1 z m 22.5,-19 c 0,-0.55 -0.7016,-1 -1.559,-1 -0.8575,0 -1.2809,0.45 -0.941,1 0.3399,0.55 1.0415,1 1.559,1 0.5176,0 0.941,-0.45 0.941,-1 z m 19.5991,-26.1604 c 0.3945,-0.6383 0.8221,-5.1939 0.9502,-10.1237 0.1599,-6.1533 0.6485,-9.2201 1.5583,-9.7824 2.7112,-1.6756 3.8365,1.0149 3.4128,8.1599 -0.3256,5.4896 -0.1185,6.9066 1.0093,6.9066 1.9719,0 4.8508,-5.8813 4.6504,-9.5 -0.2098,-3.7875 1.1483,-5.9717 3.219,-5.1771 0.971,0.3726 1.6009,1.7838 1.6009,3.5867 0,1.6348 0.4784,3.268 1.063,3.6293 1.5825,0.9781 4.937,-2.5109 4.937,-5.1349 0,-2.8368 1.6297,-3.9562 3.5,-2.404 1.6715,1.3873 3.5,0.5162 3.5,-1.6674 0,-1.1123 -0.6415,-1.3884 -2.274,-0.9787 -1.2507,0.3139 -4.9514,-0.052 -8.2238,-0.8123 -3.2723,-0.7607 -6.3129,-1.1586 -6.7568,-0.8843 -1.2038,0.7441 -7.6883,1.4531 -12.3684,1.3524 -5.0461,-0.1086 -5.5407,1.1067 -4.352,10.6919 0.4583,3.6953 0.5978,7.0998 0.31,7.5654 -0.2878,0.4657 -0.2474,1.9461 0.09,3.2898 0.6422,2.5588 2.9477,3.2673 4.1742,1.2828 z m 28.4009,-10.8396 c 0,-0.55 -0.1984,-1 -0.441,-1 -0.2425,0 -0.7191,0.45 -1.059,1 -0.3399,0.55 -0.1415,1 0.441,1 0.5824,0 1.059,-0.45 1.059,-1 z m 46.708,-17.6227 c 0.2056,-0.6174 -0.5186,-1.356 -1.6092,-1.6412 -2.3973,-0.6269 -3.1487,-0.03 -2.4041,1.9108 0.6279,1.6362 3.4418,1.4473 4.0133,-0.2696 z m 4.292,-6.19 c -1.375,-0.1962 -2.9275,-0.7685 -3.45,-1.272 -1.3735,-1.3234 -2.55,-1.1241 -2.55,0.4319 0,2.1328 4.1448,3.5995 6.5,2.3002 1.9139,-1.0559 1.8924,-1.1188 -0.5,-1.4601 z m 7,0.4197 c 0,-0.7662 -0.6241,-1.6325 -1.3868,-1.9252 -0.9729,-0.3733 -1.2366,0.043 -0.8834,1.393 0.579,2.2142 2.2702,2.6106 2.2702,0.5322 z m -7.5818,-4.214 c 1.6339,-0.627 2.2043,-2.393 0.7729,-2.393 -0.4448,0 -1.6824,0.6607 -2.75,1.4682 -1.9817,1.4989 -0.8718,2.018 1.9771,0.9248 z m 32.5818,-2.393 c 0,-0.55 -0.45,-1 -1,-1 -0.55,0 -1,0.45 -1,1 0,0.55 0.45,1 1,1 0.55,0 1,-0.45 1,-1 z m 6.4182,-3.607 c 0.87,-0.3338 1.5818,-1.282 1.5818,-2.107 0,-0.9225 -0.5775,-1.2784 -1.5,-0.9244 -0.9137,0.3506 -1.5,0 -1.5,-0.893 0,-0.8077 0.675,-1.4686 1.5,-1.4686 0.825,0 1.5,-0.7275 1.5,-1.6166 0,-1.1243 0.6091,-1.4574 2,-1.0937 1.2999,0.34 2,0.031 2,-0.8833 0,-2.2721 -3.7003,-1.6152 -6.4629,1.1474 -1.4046,1.4046 -2.9529,2.3072 -3.4407,2.0058 -0.8463,-0.5231 -2.0964,1.5772 -2.0964,3.5222 0,0.505 1.1516,0.9182 2.559,0.9182 1.4514,0 2.2915,0.4328 1.941,1 -0.7135,1.1545 -0.2914,1.2409 1.9182,0.393 z m 281.0391,-0.3239 c 0.7395,-1.1966 -1.1416,-2.3822 -2.4736,-1.559 -1.1184,0.6912 -0.3842,2.4899 1.0163,2.4899 0.4851,0 1.1409,-0.4189 1.4573,-0.9309 z m -273.3297,-1.8191 c 1.2438,-1.5861 1.2085,-1.6214 -0.3776,-0.3776 -0.9625,0.7549 -1.75,1.5424 -1.75,1.75 0,0.8231 0.8212,0.2933 2.1276,-1.3724 z m -25.1276,-1.691 c 0,-1.3425 0.45,-2.7191 1,-3.059 1.8769,-1.16 1.0374,-3.5003 -1.25,-3.4847 -1.8391,0.012 -1.9761,0.1995 -0.75,1.0237 1.2633,0.8492 1.046,1.3815 -1.3775,3.3739 -3.0293,2.4903 -2.8297,4.5871 0.4365,4.5871 1.3912,0 1.941,-0.6914 1.941,-2.441 z m 35.3574,-7.2869 c -2.2236,-1.6259 -2.6102,-1.1273 -1.7581,2.2677 0.6628,2.6405 0.7643,2.6834 2.0832,0.8798 1.204,-1.6467 1.1613,-2.0607 -0.3251,-3.1475 z m -13.5342,-2.8559 3.3232,-2.2002 -2.2957,-1.608 c -1.2626,-0.8844 -2.9831,-1.5725 -3.8232,-1.5291 -1.0281,0.053 -1.1188,0.2439 -0.2775,0.5834 0.6875,0.2774 1.25,1.3669 1.25,2.421 0,2.5622 -3.0408,2.4768 -3.7158,-0.1044 -0.4152,-1.588 -0.8237,-1.776 -1.9063,-0.8775 -1.4097,1.1699 -1.8516,4.0916 -0.7807,5.1625 1.1692,1.1692 4.953,0.3193 8.226,-1.8477 z m 22.5006,1.1823 c 0.3293,-0.858 -0.2861,-1.6169 -1.5868,-1.957 -2.0744,-0.5425 -2.0809,-0.604 -0.2758,-2.5986 1.6496,-1.8229 1.6705,-2.0429 0.1938,-2.0429 -0.9103,0 -1.655,0.4359 -1.655,0.9686 0,0.5328 -0.6169,0.7319 -1.371,0.4425 -1.6185,-0.621 -2.7694,1.7437 -1.6948,3.4824 0.412,0.6666 1.3828,1.0758 2.1574,0.9093 0.7746,-0.1665 1.2959,0.2597 1.1584,0.9472 -0.344,1.7202 2.4076,1.5846 3.0738,-0.1515 z m 51.1114,-11.4937 c 0.3043,-0.4924 -0.1835,-1.178 -1.0841,-1.5236 -1.9468,-0.747 -2.8089,-0.131 -1.8922,1.3523 0.8037,1.3003 2.2279,1.3823 2.9763,0.1713 z m 41.2479,-1.2923 c -0.3192,-0.7977 -0.5562,-0.5608 -0.6041,0.6042 -0.044,1.0541 0.1929,1.6448 0.5252,1.3125 0.3323,-0.3323 0.3678,-1.1948 0.079,-1.9167 z m -65.6831,-1.3958 c 0,-0.8709 -0.5344,-1.4052 -1.1875,-1.1875 -1.8542,0.618 -2.1618,2.7708 -0.3958,2.7708 0.8708,0 1.5833,-0.7125 1.5833,-1.5833 z m 62.7292,0.9791 c -0.3323,-0.3323 -1.1948,-0.3678 -1.9167,-0.079 -0.7977,0.3192 -0.5608,0.5562 0.6042,0.6041 1.0541,0.044 1.6448,-0.1929 1.3125,-0.5252 z m -50,-1 c -0.3323,-0.3323 -1.1948,-0.3678 -1.9167,-0.079 -0.7977,0.3192 -0.5608,0.5562 0.6042,0.6041 1.0541,0.044 1.6448,-0.1929 1.3125,-0.5252 z m 66.6324,-0.8958 c -0.3166,-0.825 -0.7524,-1.5 -0.9686,-1.5 -0.2161,0 -0.393,0.675 -0.393,1.5 0,0.825 0.4359,1.5 0.9686,1.5 0.5327,0 0.7096,-0.675 0.393,-1.5 z m -96.5491,-1.4375 c 0.25,-0.75 -0.125,-1.125 -0.875,-0.875 -0.7219,0.2406 -1.5094,1.0281 -1.75,1.75 -0.25,0.75 0.125,1.125 0.875,0.875 0.7219,-0.2406 1.5094,-1.0281 1.75,-1.75 z m 22.968,0.7791 c -0.2123,-0.6371 -1.4873,-1.3062 -2.8333,-1.4869 -2.3581,-0.3165 -2.3765,-0.2743 -0.5061,1.1584 2.3207,1.7776 3.8734,1.9303 3.3394,0.3285 z m 78.9903,-0.6541 c 0.2177,-0.6531 -0.3166,-1.1875 -1.1875,-1.1875 -0.8708,0 -1.5833,0.7125 -1.5833,1.5833 0,1.766 2.1528,1.4584 2.7708,-0.3958 z m 42.2292,-0.6791 c 0,-1.5373 -3.4556,-2.9629 -4.9474,-2.0409 -0.5309,0.3281 -0.7002,1.2874 -0.3761,2.1317 0.4174,1.088 0.9,1.2243 1.6563,0.468 1.5849,-1.5849 2.9673,-1.2918 2.2856,0.4847 -0.3415,0.89 -0.1738,1.2914 0.393,0.941 0.5438,-0.336 0.9886,-1.2291 0.9886,-1.9845 z m -148,0.4916 c 0,-0.55 -0.4234,-1 -0.941,-1 -0.5175,0 -1.2191,0.45 -1.559,1 -0.3399,0.55 0.084,1 0.941,1 0.8574,0 1.559,-0.45 1.559,-1 z m -269.0365,732.96348 c -1.12,-1.12 -1.8053,-2.4105 -1.5228,-2.8676 0.4797,-0.7761 1.4469,-21.9038 1.874,-40.935 0.1641,-7.3159 0.4631,-8.5625 2.4362,-10.1603 1.2599,-1.0202 2.2491,-2.9343 2.2491,-4.3519 0,-1.3919 0.45,-2.8088 1,-3.1487 0.55,-0.3399 1,-1.0966 1,-1.6815 0,-0.7203 -0.4033,-0.739 -1.25,-0.058 -0.6875,0.5531 -6.8657,1.1707 -13.7294,1.3725 -11.5761,0.3404 -12.5061,0.2308 -12.8484,-1.5133 -0.5729,-2.9193 1.6084,-3.5987 11.3278,-3.528 4.95,0.036 9.7469,-0.2276 10.6597,-0.5856 0.9129,-0.358 3.0383,0.062 4.7232,0.9333 2.842,1.4696 3.0166,1.4623 2.4166,-0.1013 -0.4876,-1.2708 -0.2429,-1.5304 0.9949,-1.0555 0.9028,0.3465 1.8804,0.2435 2.1723,-0.2289 0.292,-0.4723 2.4439,-0.293 4.7821,0.3985 4.5587,1.3482 7.6977,1.2131 14.6525,-0.6303 4.1108,-1.0896 4.5253,-1.0133 6.2825,1.1566 1.851,2.2859 1.8462,2.3606 -0.2981,4.643 -1.641,1.7469 -1.9083,2.6463 -1.0819,3.642 0.6887,0.8298 1.0905,6.7941 1.079,16.0151 -0.01,8.0811 0.2056,15.0554 0.4794,15.4984 0.5866,0.9492 57.6126,0.6831 60.6565,-0.283 1.2408,-0.3938 3.0676,-0.012 4.5303,0.946 l 2.451,1.606 0.1,-4.773 c 0.055,-2.6252 0.2358,-7.6981 0.4019,-11.2731 0.1661,-3.575 -0.075,-8.2713 -0.5354,-10.4362 -0.9726,-4.5716 0.2147,-7.5638 3.0015,-7.5638 2.5127,0 3.2582,2.7265 2.9561,10.8116 -0.1375,3.6786 0.063,9.1634 0.4462,12.1884 0.3829,3.025 0.8197,11.9457 0.9706,19.8238 l 0.2745,14.3238 -2.9958,1.5492 c -2.1869,1.1309 -3.4471,1.2674 -4.6669,0.5056 -1.1503,-0.7183 -4.1302,-0.7293 -9.5618,-0.035 -4.3399,0.5546 -10.4695,0.7517 -13.6213,0.438 -3.1518,-0.3137 -6.9053,-0.1238 -8.341,0.4221 -2.2276,0.8469 -2.6876,0.6977 -3.1361,-1.0174 -0.3756,-1.4362 -1.4199,-2.0436 -3.659,-2.1283 -1.7233,-0.065 -3.5833,0.021 -4.1333,0.1905 -0.55,0.1698 -2.8,0.4549 -5,0.6335 -10.9824,0.8916 -21.3828,2.104 -22.1578,2.5829 -0.477,0.2949 -1.9373,-0.037 -3.245,-0.7364 -1.803,-0.9649 -3.0839,-1.0059 -5.3,-0.1694 -2.564,0.9678 -3.1292,0.8288 -4.6098,-1.1337 -1.4954,-1.9823 -1.6663,-5.2249 -1.502,-28.4929 0.1021,-14.4408 0.2146,-27.2685 0.25,-28.506 0.079,-2.7665 3.6497,-3.1324 4.4976,-0.461 0.3123,0.984 0.6398,10.9965 0.7277,22.25 0.1966,25.1701 2.0923,38.0577 4.3025,29.2512 0.3741,-1.4903 0.6707,-13.8529 0.6593,-27.4724 -0.012,-14.5702 0.3698,-25.0041 0.9283,-25.3492 2.8755,-1.7772 0.1473,-2.5188 -8.3008,-2.2562 -6.1829,0.1922 -9.1808,0.6612 -9.0411,1.4144 0.1149,0.6197 0.4049,10.7447 0.6443,22.5 0.2595,12.7389 0.9026,22.5642 1.5918,24.3215 1.5155,3.8643 -1.3028,9.789 -4.4424,9.3388 -1.9206,-0.2754 -2.0052,-1.0655 -2.0655,-19.2871 -0.1165,-35.1806 -0.3061,-36.7205 -3.8477,-31.25 -1.4073,2.1736 -1.7515,6.5519 -1.7491,22.25 6e-4,3.85 -0.01,7.45 -0.016,8 -0.075,4.4973 1.6515,18.6762 2.3255,19.0927 1.453,0.898 0.938,3.3191 -1.1501,5.4073 -2.5134,2.5134 -3.4925,2.5075 -6.0365,-0.036 z m 45.7292,-6.4937 c 0.656,-0.1997 2.5376,0.023 4.1813,0.4941 2.1153,0.6066 3.52,0.4542 4.8073,-0.5216 1.0003,-0.7583 3.0562,-1.393 4.5687,-1.4105 1.5125,-0.017 2.75,-0.5121 2.75,-1.0992 0,-0.5871 -0.7875,-0.8293 -1.75,-0.5384 -2.0132,0.6086 -17.947,-0.8266 -20.371,-1.8349 -2.04,-0.8486 -2.8957,1.1886 -1.7706,4.2155 0.8326,2.2402 2.1212,2.3582 7.5843,0.695 z m 46.3073,-1.004 c 6.1198,-0.4883 6.5547,-0.6477 4,-1.4658 -3.9697,-1.2713 -30.0727,-1.1112 -27,0.1656 3.8778,1.6114 12.13,2.7006 16,2.1119 1.925,-0.2928 5.075,-0.6581 7,-0.8117 z m 12,0.034 c 0,-0.8983 -0.9025,-1.4872 -2.25,-1.4682 -2.1937,0.031 -2.2014,0.069 -0.3089,1.5 2.4106,1.8233 2.5589,1.8214 2.5589,-0.032 z m -35,-8.896 c 15.125,0.057 29.3,0.2822 31.5,0.5 l 4,0.396 0.3212,-3.9315 c 0.2845,-3.4827 0.1412,-3.7822 -1.2554,-2.6231 -1.2224,1.0145 -8.0964,1.2963 -30.6004,1.2545 -15.9631,-0.03 -30.3179,-0.338 -31.8994,-0.6854 -3.3969,-0.7461 -4.0693,0.017 -3.3464,3.7992 0.4165,2.1784 0.8969,2.6224 2.1581,1.9943 0.8922,-0.4444 13.9973,-0.7612 29.1223,-0.704 z m 46.4734,16.146 c -0.3106,-1.2375 -0.1838,-8.1 0.2817,-15.25 0.4656,-7.15 0.5986,-14.243 0.2957,-15.7623 -0.303,-1.5193 -0.3258,-6.8291 -0.051,-11.7996 0.275,-4.9705 0.2266,-9.8025 -0.1075,-10.7377 -0.6332,-1.7725 0.899,-6.2004 2.1456,-6.2004 1.989,0 2.8335,3.5597 3.4399,14.5 1.0515,18.9705 1.1462,44.8808 0.1692,46.25 -1.5386,2.1559 -5.5446,1.5071 -6.1738,-1 z m -127.9734,0.5117 c -3.669,-0.5365 -5.1643,-1.7118 -7.2093,-5.6665 -2.1332,-4.1251 -2.8799,-50.4072 -0.8579,-53.1724 2.0513,-2.8053 4.5418,-1.0704 4.7314,3.2958 0.3191,7.3514 -0.4079,13.7912 -1.7776,15.7468 -1.8659,2.6639 -1.7456,4.2859 0.3679,4.9567 1.4877,0.4722 1.7972,2.0407 2.0359,10.3174 0.3004,10.4162 1.9479,18.2767 3.3633,16.0461 0.4486,-0.7071 0.8226,-3.7831 0.831,-6.8356 0.01,-3.0525 0.507,-6.0417 1.1079,-6.6426 0.7902,-0.7902 0.7591,-1.7159 -0.1123,-3.3442 -0.6627,-1.2383 -0.9778,-3.945 -0.7002,-6.0149 0.2776,-2.0699 0.086,-4.182 -0.4254,-4.6936 -1.5217,-1.5217 0.188,-9.2072 2.2996,-10.3373 1.0379,-0.5554 2.2828,-0.7653 2.7666,-0.4663 0.4837,0.299 0.905,8.0823 0.9362,17.2962 0.031,9.214 0.4809,19.2277 0.9993,22.2527 1.3366,7.7985 0.4694,8.5522 -8.3564,7.2617 z m 140.2157,-2.0233 c -1.4824,-1.6381 -1.6217,-4.7562 -1.2938,-28.9622 0.2021,-14.9195 0.6664,-27.6101 1.0318,-28.2013 1.1429,-1.8493 3.3041,-1.176 3.9046,1.2164 0.5611,2.2356 0.8686,14.8677 1.0514,43.1933 0.077,11.9268 -0.1395,14.0292 -1.4712,14.2871 -0.8588,0.1663 -2.3091,-0.5237 -3.2228,-1.5333 z m 420.9811,-2.9532 c -4.7839,-0.3975 -7.0363,-2.3457 -5.0307,-4.3513 1.2537,-1.2537 17.9647,-2.3402 18.6612,-1.2134 0.3029,0.4902 0.01,1.991 -0.6613,3.3353 -1.303,2.6277 -3.5425,3.0127 -12.9692,2.2294 z m 26.8032,-1.1729 c -5.318,-0.732 -9.5,-2.5577 -9.5,-4.1475 0,-0.585 7.2943,-0.9648 18.5314,-0.9648 15.9031,0 18.6167,0.2223 19.1328,1.5672 1.1709,3.0515 -1.5082,3.9293 -12.4617,4.083 -5.8864,0.083 -12.9525,-0.1594 -15.7025,-0.5379 z m 32.211,-2.1094 c -0.2873,-1.0985 -0.5283,-8.411 -0.5358,-16.25 -0.01,-7.8391 -0.096,-19.584 -0.1974,-26.0999 -0.1866,-12.0249 0.448,-14.4711 3.455,-13.3172 1.6419,0.6301 1.6499,0.7197 2.1139,23.6642 0.1169,5.775 0.3246,15.2866 0.4618,21.1369 0.1371,5.8503 -0.06,11.1378 -0.4386,11.75 -1.1335,1.834 -4.2987,1.2581 -4.8589,-0.884 z m 21.7396,0.9172 c -0.3671,-0.594 -0.814,-13.054 -0.9932,-27.6888 -0.3222,-26.3214 0.22,-31.9539 2.8251,-29.3488 1.6856,1.6856 1.8327,3.308 2.0512,22.6175 0.128,11.3176 0.6292,18.7521 1.3501,20.0258 0.8022,1.4172 0.8378,2.5776 0.1188,3.8624 -0.5653,1.0102 -0.7668,3.4451 -0.4478,5.411 0.5983,3.6868 -0.5848,6.2008 -2.9182,6.2008 -0.7252,0 -1.6189,-0.486 -1.986,-1.0799 z m -10.9017,-0.8409 c -0.9066,-1.4669 -1.0103,-53.5237 -0.1095,-54.9811 3.1051,-5.0242 5.0606,9.2907 5.0606,37.0445 0,18.0375 -0.038,18.3628 -2.1556,18.6646 -1.1856,0.1689 -2.4436,-0.1587 -2.7955,-0.728 z m 20.2606,-5.3292 c -0.7075,-9.4745 -0.2813,-48.9467 0.5554,-51.4453 0.6488,-1.9374 0.2888,-2.2842 -3.0649,-2.9525 -2.09,-0.4164 -4.0848,-0.6836 -4.4328,-0.5938 -0.348,0.09 -5.6101,0.4045 -11.6936,0.6992 -12.0062,0.5816 -17.2804,-0.419 -15.2303,-2.8893 0.8293,-0.99918 3.6445,-1.40348 9.8587,-1.41578 4.7839,-0.01 17.8466,-0.1627 29.0282,-0.3407 23.0934,-0.3675 23.0783,-0.372 21.3503,6.44498 -1.4018,5.53 -1.3861,24.9048 0.033,41.0654 1.081,12.3091 1.2094,12.7954 3.2062,12.153 1.1441,-0.3681 2.9802,-0.614 4.0802,-0.5465 1.1,0.068 11.9817,0.1435 24.1815,0.1688 16.0517,0.033 22.8223,-0.3029 24.5,-1.2168 2.2922,-1.2486 2.2788,-1.272 -1.1815,-2.0634 -1.925,-0.4404 -7.1,-0.7736 -11.5,-0.7407 -33.0504,0.2476 -40.5582,-0.065 -41.1905,-1.7125 -1.3739,-3.5802 1.0005,-4.8827 8.3022,-4.5543 3.7886,0.1704 17.3202,0.3285 30.0702,0.3514 18.082,0.032 23.2918,0.328 23.6814,1.3431 0.2747,0.7158 -0.08,3.2577 -0.7873,5.6486 -0.7077,2.3909 -1.0979,4.8838 -0.8671,5.5397 0.2489,0.7076 -0.9859,1.4563 -3.0357,1.8409 -2.9837,0.5597 -19.088,0.7747 -26.6732,0.356 -1.375,-0.076 -10.2403,0.1359 -19.7007,0.4706 -11.5663,0.4093 -17.4131,0.2648 -17.8493,-0.4411 -0.3569,-0.5773 -0.5908,-6.3078 -0.5199,-12.7343 0.071,-6.4266 0.072,-12.5847 0,-13.6847 -0.07,-1.1 -0.1953,-8.704 -0.2795,-16.8978 -0.1428,-13.8956 -0.2876,-14.9505 -2.1531,-15.6798 -2.7922,-1.0916 -8.9094,-1.0975 -11.7662,-0.011 l -2.3964,0.9111 0.2747,17.8389 c 0.151,9.8114 0.5522,23.1264 0.8915,29.5889 l 0.6169,11.75 -2.9222,0 c -2.868,0 -2.9307,-0.1157 -3.3888,-6.25 z m 10.8518,5.5 c -0.4532,-0.7443 -1.0272,-37.2448 -0.7666,-48.75 0.1591,-7.0226 1.2304,-9.471 3.368,-7.6969 1.0588,0.8787 1.4621,4.2618 1.6015,13.4357 0.1025,6.7436 0.4328,15.6362 0.7341,19.7612 1.5742,21.555 1.3554,24 -2.1477,24 -1.2829,0 -2.5381,-0.3375 -2.7893,-0.75 z m -106.4113,-7.9682 c -1.7203,-0.6172 -1.5711,-3.7704 0.25,-5.2818 1.826,-1.5154 1.9385,-4.1554 0.25,-5.8673 -1.0016,-1.0155 -0.8937,-1.5305 0.5429,-2.5916 1.3984,-1.0329 7.9256,-1.2932 29.6669,-1.1827 15.3307,0.078 28.192,0.4597 28.5806,0.8485 0.3887,0.3888 0.4206,1.4523 0.071,2.3634 -0.4583,1.1945 -1.2599,1.4584 -2.8735,0.9461 -1.2308,-0.3907 -2.9129,-0.6571 -3.7379,-0.5919 -0.825,0.065 -8.475,0.3353 -17,0.6002 -33.4296,1.0391 -30.4659,0.7365 -30.8091,3.1459 -0.2752,1.9325 0.2858,2.245 5.1119,2.848 2.9816,0.3725 10.3243,0.2332 16.3172,-0.3097 5.9929,-0.5428 12.2425,-0.8134 13.8881,-0.6012 3.306,0.4262 13.4469,0.6652 15.0028,0.3536 1.9583,-0.3923 5.0181,0.088 6.4891,1.0179 1.3295,0.8407 1.325,1.1235 -0.039,2.4883 -1.2989,1.2994 -6.1405,1.5963 -31,1.9013 -16.2033,0.1988 -30.0231,0.1597 -30.7106,-0.087 z m 158.4658,-10.8994 c -0.3518,-0.3517 -7.7442,-0.5845 -16.4277,-0.5172 -16.9173,0.1309 -20.0522,-0.5285 -17.0046,-3.5768 1.638,-1.6384 4.1123,-1.7676 30.3393,-1.5844 28.6443,0.2001 31.3772,0.532 31.3772,3.8115 0,1.9758 -2.0985,2.3309 -8.0323,1.3594 -4.8877,-0.8002 -13.7725,-0.4466 -18.04,0.718 -0.8648,0.236 -1.8602,0.1413 -2.2119,-0.2105 z m -655.5692,-4.4177 c -5.8739,-0.8464 -7.7209,-2.0257 -6.8259,-4.3581 0.5137,-1.3387 4.4568,-1.4726 31.8555,-1.0814 29.946,0.4275 31.2999,0.5295 31.9953,2.4095 1.0049,2.7163 -0.104,2.8988 -18.1715,2.9901 -8.525,0.043 -19.55,0.2433 -24.5,0.4449 -4.95,0.2015 -11.409,0.019 -14.3534,-0.405 z m 621.8534,-7.0131 c -1.3008,-0.8582 -1.2497,-1.1808 0.385,-2.4296 1.0368,-0.792 3.9618,-1.7402 6.5,-2.1071 4.5056,-0.6514 7.115,-1.9014 7.115,-3.4084 0,-0.4118 -3.0291,-0.8144 -6.7313,-0.8946 -6.7426,-0.1462 -10.866,-2.0215 -8.7258,-3.9683 1.5707,-1.4288 7.6099,-3.1672 8.688,-2.5009 0.5506,0.3403 12.5364,0.7936 26.6351,1.0073 14.0987,0.2137 26.1965,0.5907 26.884,0.8379 1.6255,0.5843 1.6198,4.1562 -0.01,4.7807 -0.6917,0.2655 -4.0374,0.062 -7.4349,-0.4523 -4.6781,-0.7081 -6.8605,-0.6114 -8.9924,0.3984 -2.909,1.3778 -4.732,1.5068 -7.3151,0.5175 -3.7681,-1.4432 -11.6449,-1.458 -15.2172,-0.029 -2.0734,0.8296 -3.5472,1.8685 -3.2752,2.3087 0.2721,0.4402 2.7437,1.1097 5.4924,1.4877 2.7488,0.3781 5.2428,1.0838 5.5422,1.5683 0.2994,0.4845 2.3444,0.1607 4.5443,-0.7196 2.7211,-1.0887 5.3449,-1.3916 8.2067,-0.9474 2.3138,0.3592 5.3318,0.8206 6.7068,1.0252 1.375,0.2047 2.95,0.015 3.5,-0.4224 0.55,-0.437 2.8,-0.4965 5,-0.1323 3.0993,0.513 4,1.1087 4,2.6452 0,1.9284 -0.8263,1.9891 -30,2.2036 -18.5,0.136 -30.575,-0.1588 -31.5,-0.769 z m -609.5,-2.9394 c -1.1,-0.4028 -5.7319,-0.6361 -10.2931,-0.5185 -7.0099,0.1808 -8.4378,-0.057 -9.2289,-1.5349 -0.6326,-1.1819 -0.5373,-2.0797 0.2939,-2.7695 0.787,-0.6532 12.1724,-0.961 31.62,-0.855 27.4196,0.1495 30.4951,0.3321 31.4638,1.8677 0.5904,0.9362 0.7113,2.0612 0.2684,2.5 -0.4428,0.4389 -9.0422,0.6787 -19.1099,0.5329 -10.0676,-0.1458 -19.3644,0.1343 -20.6595,0.6224 -1.2951,0.4881 -3.2547,0.5578 -4.3547,0.1549 z m -68.8661,-8.5238 c -1.1299,-2.9445 -0.6717,-8.2122 0.8223,-9.4521 3.5897,-2.9791 4.88,3.4171 1.6712,8.2839 -1.5453,2.3437 -1.9666,2.5411 -2.4935,1.1682 z m 53.4013,-11.4227 c -0.5694,-1.0638 -1.0352,-5.1279 -1.0352,-9.0313 0,-5.41268 0.359,-7.23498 1.5127,-7.67768 3.1167,-1.196 4.4873,1.573 4.4873,9.06568 0,8.6525 -2.4259,12.3873 -4.9648,7.6433 z m 10.6315,1.2676 c -0.3667,-0.3666 -0.6667,-3.5166 -0.6667,-7 0,-5.64628 0.2149,-6.33328 1.981,-6.33328 1.9687,0 2.3136,0.7676 3.3654,7.48938 0.7267,4.6441 -2.211,8.3126 -4.6797,5.8439 z m 10.8979,-0.2288 c -0.342,-0.5534 -0.7841,-13.82428 -0.9823,-29.49088 -0.3029,-23.932 -0.1334,-28.5719 1.0606,-29.0301 2.8496,-1.0934 3.5233,4.7295 3.6908,31.8966 0.1504,24.40018 0.01,27.01118 -1.4905,27.30528 -0.9112,0.179 -1.9366,-0.1275 -2.2786,-0.6809 z m -84.4045,-12.34438 c -3.5854,-3.5854 2.2816,-4.7261 23.5327,-4.5752 7.7883,0.055 10.5456,-0.2805 11.6888,-1.4236 2.767,-2.767 -2.5454,-3.968 -17.1871,-3.8857 -7.318,0.041 -13.7297,0.3371 -14.2482,0.6576 -1.3132,0.8116 -4.968,-1.9148 -4.1302,-3.0811 0.9702,-1.3507 7.3013,-3.4976 8.3687,-2.8379 0.4905,0.3032 5.4871,0.467 11.1035,0.3641 14.9834,-0.2744 16.1221,-0.1827 17.1386,1.3807 0.7852,1.2075 1.1675,1.1606 2.5,-0.3068 1.3293,-1.464 2.9289,-1.6639 10.3231,-1.2897 7.7373,0.3915 8.75,0.6601 8.75,2.3211 0,2.2221 -2.0392,2.808 -11,3.1606 -5.8881,0.2317 -6.5301,0.4676 -6.8196,2.5058 -0.3463,2.4388 0.5525,2.6241 11.0034,2.2682 2.5761,-0.088 5.6661,0.3663 6.8666,1.0088 2.0189,1.0805 2.0603,1.2909 0.5508,2.8003 -1.1968,1.1969 -3.2945,1.5953 -7.8666,1.494 -3.429,-0.076 -8.3408,-0.1794 -10.915,-0.2297 -3.8772,-0.076 -4.7353,-0.4364 -5,-2.1008 -0.3055,-1.9204 -0.4509,-1.8959 -3.2876,0.5536 -2.2058,1.9048 -3.6183,2.3988 -5.5,1.9238 -2.8021,-0.7073 -22.8431,-0.703 -23.9889,0 -0.3976,0.2458 -1.245,-0.075 -1.883,-0.7132 z m 64.0668,-14.5541 c -2.1655,-1.6666 -2.2756,-2.4054 -2.3259,-15.6019 -0.054,-14.0844 0.5095,-16.428 3.6574,-15.2201 1.3931,0.5346 1.599,1.5761 1.1629,5.8828 -0.7218,7.1275 1.1855,21.7602 2.9232,22.427 1.8484,0.7093 1.711,2.9558 -0.2263,3.6992 -2.2467,0.8622 -2.6481,0.7704 -5.1913,-1.187 z m 9.302,0.8408 c -0.946,-1.5307 -0.8356,-31.1401 0.1196,-32.0953 0.4775,-0.4775 1.4417,-0.5138 2.1427,-0.081 1.877,1.16 2.8068,31.133 1.0013,32.2784 -1.7045,1.0813 -2.5482,1.0548 -3.2636,-0.1026 z m 550.9303,-2.1129 c -1.6938,-2.7406 1.9178,-3.3817 20.8119,-3.6941 10.5759,-0.1748 20.1289,-0.3806 21.2289,-0.4571 1.1,-0.077 5.9516,-0.059 10.7814,0.039 7.0184,0.1424 8.9047,0.4996 9.3957,1.7792 0.3379,0.8805 0.09,1.9248 -0.5505,2.3208 -2.0267,1.2526 -60.8936,1.2642 -61.6674,0.012 z m -623.2592,-3.1339 c -0.66,-0.66 -1.2,-2.0242 -1.2,-3.0315 0,-1.5376 0.7624,-1.8096 4.75,-1.6944 2.6125,0.075 11.5603,0.031 19.884,-0.099 8.3236,-0.13 15.6269,0.068 16.2293,0.4406 0.6024,0.3724 1.9751,0.2062 3.0503,-0.3693 2.3707,-1.2687 12.0426,-1.3599 13.9821,-0.1318 2.2491,1.4241 0.5212,4.0239 -2.6002,3.9123 -3.1012,-0.1109 -13.064,1.016 -15.0979,1.7078 -0.7163,0.2436 -2.3476,-0.2419 -3.625,-1.0789 -1.71,-1.1204 -3.3447,-1.3131 -6.1976,-0.7304 -2.1313,0.4353 -7.925,0.5153 -12.875,0.1779 -6.708,-0.4574 -9.564,-0.2685 -11.2148,0.7416 -2.7208,1.6649 -3.5502,1.6902 -5.0852,0.1553 z m -0.95,-9.5027 c -0.6875,-0.2552 -1.25,-1.2692 -1.25,-2.2534 0,-1.4095 1.1147,-1.9274 5.25,-2.4393 6.6772,-0.8265 4.8025,-0.7756 22.42,-0.6082 12.3186,0.1171 15.2758,0.42 15.7331,1.6117 0.7737,2.0163 -1.6972,2.7604 -6.576,1.9802 -3.4537,-0.5522 -23.3613,0.5798 -31.8271,1.8098 -1.375,0.1998 -3.0625,0.1545 -3.75,-0.1008 z m 44.75,-2.7783 c 0,-3.0846 8.2211,-3.3249 8.8118,-0.2575 0.2787,1.4467 -0.4327,1.7385 -4.2385,1.7385 -3.3723,0 -4.5733,-0.3889 -4.5733,-1.481 z m -3.5,-6.4978 c -1.65,-0.4315 -7.5,-0.8827 -13,-1.0026 -10.6954,-0.2331 -14.6509,-0.9172 -14.5634,-2.5186 0.063,-1.1476 3.4666,-1.6357 10.3942,-1.4905 2.6569,0.056 5.4694,-0.4288 6.25,-1.0766 1.0297,-0.8545 1.7796,-0.8787 2.7324,-0.088 0.7339,0.6091 2.8815,0.8354 4.8682,0.513 2.2768,-0.3694 4.7741,0 6.9455,1.032 2.4175,1.1472 4.2488,1.3662 6.3818,0.7634 3.4864,-0.9855 5.4913,-0.513 5.4913,1.294 0,0.7425 -1.7862,1.5424 -4.25,1.9032 -2.3375,0.3423 -5.15,0.8097 -6.25,1.0388 -1.1,0.229 -3.35,0.063 -5,-0.3682 z m -43.12,-2.4733 c -0.3065,-0.7987 -0.2658,-1.9237 0.09,-2.5 0.7296,-1.1805 8.0417,-1.2955 10.9021,-0.1716 1.7597,0.6915 1.7705,0.8378 0.1786,2.4298 -2.1764,2.1763 -10.3608,2.3535 -11.1711,0.2418 z m 9.5979,-7.2979 c -0.012,-0.9625 -0.084,-14.125 -0.1594,-29.25 -0.1346,-26.9315 -0.095,-27.5063 1.8948,-27.8029 2.9334,-0.4372 3.4417,1.8356 3.1976,14.2994 -0.3123,15.9496 -0.3137,16.9655 -0.04,28.5035 0.3937,16.586 0.4806,16 -2.3711,16 -1.7059,0 -2.507,-0.5559 -2.5221,-1.75 z m 11.4776,0.678 c -0.9394,-1.5199 -1.116,-31.0201 -0.1892,-31.5927 0.4215,-0.2604 0.5529,-0.8189 0.292,-1.241 -0.2609,-0.4221 -0.6879,-5.7611 -0.949,-11.8644 -0.3841,-8.9812 -0.1934,-11.3302 1.0005,-12.321 2.6534,-2.2022 3.6712,0.6023 4.0969,11.2892 0.2257,5.6661 0.3333,10.9769 0.2389,11.8019 -0.094,0.825 -0.2749,8.475 -0.4012,17 -0.1263,8.525 -0.3005,16.0625 -0.3871,16.75 -0.1924,1.529 -2.7896,1.6539 -3.7018,0.178 z m 10.8349,-0.1447 c -1.0043,-1.2763 -1.7434,-46.4965 -0.9036,-55.2833 0.4122,-4.3118 3.2302,-4.519 4.1569,-0.3057 0.622,2.8278 0.6707,6.5769 0.2869,22.0557 -0.031,1.2375 -0.015,6.525 0.034,11.75 0.1977,20.8161 -0.5846,25.5832 -3.5747,21.7833 z m -33.2904,-5.6609 c 0,-8.6696 5.1007,-9.4047 6.5306,-0.9411 0.7499,4.4386 -0.2364,5.7759 -4.2806,5.8034 -2.0279,0.014 -2.25,-0.4662 -2.25,-4.8623 z m 63.8181,2.744 c -0.725,-0.4597 -1.0931,-0.8858 -0.8181,-0.947 8.4318,-1.8751 14.3359,-2.3943 15.72,-1.3822 1.2248,0.8956 1.2979,1.3337 0.3228,1.9363 -1.7727,1.0956 -13.6337,1.4017 -15.2247,0.3929 z m -60.8428,-13.3961 c -0.6982,-0.8414 -1.389,-4.5539 -1.535,-8.25 -0.146,-3.6962 -0.7768,-11.2457 -1.4017,-16.7767 -1.2754,-11.2869 -0.4849,-15.4436 2.9366,-15.4436 1.5252,0 2.0421,0.6786 2.095,2.75 0.3128,12.2619 0.998,22.0117 2.0441,29.0838 1.0465,7.0752 1.0177,8.4698 -0.1908,9.2347 -1.9621,1.2418 -2.4871,1.1622 -3.9482,-0.5982 z m 686.8898,-0.5617 c -1.01,-0.6301 -1.091,-1.2916 -0.3112,-2.5428 0.9495,-1.5237 4.0174,-1.6997 31,-1.7784 l 29.9461,-0.087 0,2.5 0,2.5 -29.6349,0.1302 c -16.2992,0.072 -30.2492,-0.2532 -31,-0.7216 z m -0.5695,-10.5807 c -1.3322,-3.4716 1.7035,-3.8306 31.4249,-3.7163 15.9625,0.061 29.5305,0.4255 30.1511,0.809 0.6206,0.3836 1.1284,1.3459 1.1284,2.1384 0,1.404 -5.4137,2.1404 -12,1.6323 -3.7966,-0.2929 -13.7099,-0.2025 -32.7919,0.2991 -15.2705,0.4014 -17.3645,0.2655 -17.9125,-1.1625 z m 57.7044,-269.2055 c 0,-1.8351 2.5975,-3.1249 3.8238,-1.8986 1.8409,1.8408 1.3948,2.7762 -1.3238,2.7762 -1.375,0 -2.5,-0.3949 -2.5,-0.8776 z m -747.6922,-33.411 c -3.1914,-0.9673 -4.8223,-3.07 -3.7397,-4.8215 0.3159,-0.5113 4.5955,-0.8405 9.5101,-0.7316 l 8.9357,0.198 -2.1813,2.3219 c -1.1997,1.277 -3.0324,2.3218 -4.0727,2.3218 -1.0402,0 -2.6493,0.3778 -3.5756,0.8395 -0.9418,0.4694 -3.0916,0.4129 -4.8765,-0.1281 z m -3.1525,-11.4614 c -1.6577,-1.404 -2.1244,-3.134 -2.3608,-8.75 l -0.2945,-7 3.3175,-0.3184 c 4.3077,-0.4134 13.3841,1.5433 14.3951,3.1034 0.6062,0.9354 0.9876,0.9046 1.6572,-0.1334 1.1199,-1.736 4.6302,-1.0824 4.6302,0.8621 0,0.9908 -1.1668,1.5583 -3.5,1.7023 -4.5822,0.2829 -17.7941,2.7448 -18.4958,3.4465 -0.301,0.301 2.9499,1.1285 7.2243,1.839 7.5822,1.2603 10.2715,2.3393 10.2715,4.1209 0,0.4827 -1.5484,0.8776 -3.441,0.8776 -1.8925,0 -3.7191,0.45 -4.059,1 -1.0072,1.6297 -7.1137,1.1395 -9.3447,-0.75 z m 20.627,-19.801 c -0.3031,-0.3031 -1.8406,-0.7018 -3.4167,-0.886 -1.5761,-0.1842 -3.2189,-0.3863 -3.6508,-0.449 -1.9547,-0.2838 1.5371,-3.9144 4.2953,-4.466 l 3.0812,-0.6163 -0.1138,-12.7658 c -0.063,-7.0213 -0.089,-16.7211 -0.059,-21.5553 0.03,-4.8341 0.01,-9.1091 -0.05,-9.5 -0.058,-0.3908 -0.052,-5.3544 0.013,-11.0302 0.1159,-10.1006 0.1661,-10.3127 2.3684,-10 2.5732,0.3655 2.3137,-3.0185 2.7858,36.3196 0.294,24.5009 -0.01,32.0358 -1.3801,34.25 -0.7982,1.2896 -2.903,1.6694 -3.8734,0.699 z m -23.0537,-1.0538 c -1.2879,-1.2878 -0.7823,-3.2672 1.3392,-5.2438 2.124,-1.9787 3.011,-1.8985 10.6822,0.9656 2.4281,0.9066 3.0322,3.3911 1,4.1132 -2.2207,0.7891 -12.27,0.9165 -13.0214,0.165 z m 13.74,-8.8952 c -0.2577,-0.825 -0.6669,-2.1421 -0.9092,-2.9269 -0.5352,-1.7336 1.9451,-3.9974 3.3968,-3.1002 1.8463,1.1411 0.9177,7.5271 -1.0946,7.5271 -0.5084,0 -1.1352,-0.675 -1.393,-1.5 z m 708.6431,-66.4251 c -1.1284,-0.7022 -1.4259,-6.6391 -1.5895,-31.7194 l -0.2013,-30.8555 -11.6738,0 c -10.4821,0 -11.7337,-0.1889 -12.2598,-1.8507 -1.0747,-3.3942 1.1909,-4.0181 15.6509,-4.3095 7.7338,-0.1558 14.3836,-0.4824 14.7774,-0.7258 0.3938,-0.2434 3.1839,0.2031 6.2002,0.9922 3.8492,1.007 7.9029,1.2418 13.5971,0.7878 8.3864,-0.6686 10.7992,0.1996 8.4433,3.0383 -0.8459,1.0192 -4.6238,1.3283 -15.6068,1.2769 -14.7445,-0.069 -18.0271,0.6621 -15.7078,3.4984 1.6375,2.0025 1.9804,44.0311 0.4528,55.5118 -0.546,4.1039 -0.9911,5.0348 -2.0827,4.3555 z m -720.3617,-7.8261 c -1.9045,-0.4304 -2.4789,-4.8392 -0.7074,-5.4297 0.5735,-0.1911 5.1614,-0.056 10.1954,0.2997 5.034,0.356 18.0593,0.5015 28.9451,0.3233 16.6338,-0.2722 20.0336,-0.082 21.3046,1.1885 3.3651,3.365 1.0185,4.5246 -7.1528,3.5346 -3.2092,-0.3888 -8.5349,-0.5995 -11.8349,-0.4682 -14.5725,0.5798 -39.153,0.9127 -40.75,0.5518 z m 49.6429,-10.1892 c -0.2969,-0.297 -11.2046,-0.42 -24.2392,-0.2734 -24.4996,0.2754 -28.389,-0.269 -26.2414,-3.6731 0.7105,-1.1262 4.9831,-1.3405 22.7313,-1.1399 40.6598,0.4594 37.8564,0.2722 37.8564,2.5268 0,1.6447 -0.8499,2.0977 -4.7836,2.5497 -2.631,0.3023 -5.0266,0.3068 -5.3235,0.01 z m -46.3068,-10.3684 c -4.0909,-0.8098 -5.2257,-2.5724 -2.8361,-4.4049 0.9453,-0.725 40.5187,-0.9477 58.5,-0.3293 1.6076,0.055 1.6247,2.6934 0.024,3.6827 -0.6744,0.4168 -9.7869,0.9322 -20.25,1.1454 -10.4631,0.2132 -21.7976,0.4613 -25.1878,0.5513 -3.3901,0.09 -8.0026,-0.2004 -10.25,-0.6452 z m 683.9139,-5.5842 c 0,-0.8932 2.3515,-2.107 4.0818,-2.107 0.505,0 0.9182,0.675 0.9182,1.5 0,0.9333 -0.9444,1.5 -2.5,1.5 -1.375,0 -2.5,-0.4019 -2.5,-0.893 z m -654.7305,-23.3237 c -1.0619,-1.3222 -1.6705,-60.6371 -0.657,-64.0333 0.7416,-2.4849 3.0734,-2.1692 3.6927,0.5 0.2871,1.2375 0.3786,4.725 0.2033,7.75 -0.8269,14.2683 -0.7941,15.9509 0.3372,17.3141 0.8526,1.0273 0.9103,2.1974 0.2005,4.0643 -0.5633,1.4817 -0.6415,3.5999 -0.1798,4.8716 0.4492,1.2375 0.5506,8.5139 0.2252,16.1698 -0.5776,13.5897 -1.3819,16.4018 -3.8221,13.3635 z m -20.7357,-0.7287 c -0.8206,-1.3276 -2.4562,-59.6255 -1.7341,-61.8046 0.7494,-2.2612 4.196,-1.4499 4.2482,1 0.026,1.2375 0.2656,4.725 0.5317,7.75 0.6132,6.9706 1.5665,29.2288 1.4775,34.5 -0.037,2.2 -0.052,6.5217 -0.034,9.6037 0.024,4.0212 -0.4939,6.2556 -1.8355,7.9123 -1.3932,1.7205 -2.0694,1.9851 -2.6543,1.0386 z m 10.1181,0.1912 c -0.3981,-0.6441 -1.1196,-58.4519 -0.7739,-61.9958 0.067,-0.6875 0.9095,-1.25 1.872,-1.25 2.0602,0 1.94,-1.219 2.5469,25.8266 0.2945,13.1223 0.8544,20.7247 1.5796,21.4499 1.5446,1.5446 1.3552,4.8331 -0.413,7.171 -0.8101,1.0712 -1.2208,2.7417 -0.9128,3.7123 0.9728,3.0649 -2.4159,7.4854 -3.8988,5.086 z m 663.7543,-3.3976 c -0.7096,-1.1481 -0.7325,-4.8953 -0.233,-38.0154 0.1797,-11.917 0.6344,-21.9746 1.0103,-22.3502 1.9846,-1.9829 2.6562,1.8707 2.8362,16.2717 0.2673,21.4016 0.073,34.286 -0.5306,35.2634 -0.2769,0.448 -0.063,1.9733 0.4757,3.3897 0.5385,1.4164 0.7319,3.2193 0.4298,4.0066 -0.7279,1.8971 -3.1615,2.7721 -3.9884,1.4342 z m 33.5761,-11.9576 c -1.3653,-0.3802 -7.2073,-0.743 -12.9823,-0.8062 -10.9648,-0.1201 -13.6871,-0.8516 -12.704,-3.4135 0.8063,-2.1012 7.9652,-3.0208 16.8644,-2.1665 9.5475,0.9166 23.3441,0.9151 28.094,0 2.7969,-0.5406 4.4225,-0.288 6.3738,0.9906 2.0346,1.3331 3.1328,1.4823 4.9196,0.6681 3.002,-1.3677 5.3368,0.8608 2.9645,2.8296 -1.2145,1.008 -1.8161,1.0031 -3.0547,-0.025 -1.1682,-0.9695 -1.8232,-0.9992 -2.7,-0.1224 -0.6416,0.6416 -4.2999,1.1901 -8.2076,1.2306 -3.8775,0.04 -9.308,0.3961 -12.0677,0.7909 -2.7597,0.3949 -6.1347,0.4069 -7.5,0.027 z m -657.2233,-9.0397 c -0.5777,-0.357 -0.7761,-1.364 -0.4408,-2.2377 0.4936,-1.2863 2.3773,-1.6021 9.8957,-1.6591 5.1074,-0.039 15.8223,-0.1185 23.811,-0.1772 7.9887,-0.059 15.8214,0.2187 17.4061,0.6164 2.6611,0.6679 2.7569,0.8474 1.2539,2.3504 -1.4111,1.4111 -4.8974,1.6358 -26.2513,1.6917 -13.5432,0.035 -25.0968,-0.2275 -25.6746,-0.5845 z m 685.8797,-2.5455 c -0.382,-0.3821 -2.0538,-0.7888 -3.715,-0.9038 -4.8547,-0.3361 -7.9237,-1.3511 -7.9237,-2.6207 0,-0.8918 0.2823,-0.8986 1.1532,-0.028 0.8572,0.8571 1.6904,0.8656 3.246,0.033 1.151,-0.616 4.4571,-1.2247 7.3468,-1.3527 4.8785,-0.2161 5.254,-0.069 5.254,2.0599 0,2.7524 -3.5558,4.6174 -5.3613,2.8119 z m -54.148,-1.3205 c -1.2095,-1.9569 0.6296,-2.7944 7.7554,-3.5315 12.8186,-1.3259 34.1408,-0.1123 33.467,1.9049 -0.5013,1.5009 -2.9981,1.7367 -23.4134,2.2115 -10.6598,0.2479 -17.4318,0.026 -17.809,-0.5849 z m -631.5481,-7.0204 c -0.6787,-0.4194 -1.0007,-1.3706 -0.7156,-2.1136 0.6103,-1.5901 25.5084,-2.5013 53.523,-1.9587 11.2086,0.217 11.0739,2.2109 -0.25,3.7021 -6.6461,0.8751 -51.2322,1.1892 -52.5574,0.3702 z m 679.5574,-2.0091 c -1.1,-0.425 -11.8571,-0.7934 -23.9046,-0.8187 -22.8878,-0.048 -26.5124,-0.6875 -21.8454,-3.854 2.8833,-1.9563 2.8315,-2.8784 -0.3134,-5.5836 -3.5794,-3.0788 -2.4451,-6.1379 1.9559,-5.275 4.1019,0.8043 4.2294,0.7996 10.6075,-0.3877 3.025,-0.5631 9.1,-0.7611 13.5,-0.44 4.4,0.3211 8.5625,0.6183 9.25,0.6604 0.6875,0.042 1.25,0.864 1.25,1.8265 0,0.9625 -0.5625,1.9473 -1.25,2.1883 -0.6875,0.2411 -7.6401,0.2237 -15.4503,-0.039 l -14.2004,-0.4769 -0.6697,2.6685 c -0.3684,1.4677 -0.4522,2.8862 -0.1862,3.1521 0.2659,0.266 6.0575,0.5036 12.8701,0.5282 6.8126,0.024 14.0844,0.481 16.1596,1.0146 2.0752,0.5335 4.3102,0.6381 4.9667,0.2323 0.6565,-0.4057 5.0336,-0.708 9.7269,-0.6717 8.082,0.062 8.5512,0.186 8.8715,2.3356 0.3019,2.0255 0.022,2.2063 -2.6046,1.681 -1.7295,-0.3459 -3.7245,-0.048 -4.8383,0.7214 -1.1558,0.7988 -2.6757,1.0085 -3.8953,0.5373 z m -680.12,-9.4075 c -1.0808,-2.8166 0.7436,-3.675 7.4677,-3.5136 3.6588,0.088 16.5716,0.094 28.6953,0.015 22.0361,-0.145 25.8681,0.2089 25.1693,2.3243 -0.4384,1.3271 -18.0561,2.345 -43.4937,2.5128 -14.26,0.094 -17.3788,-0.1399 -17.8386,-1.3381 z m 677.6519,-2.8686 c -5.6905,-1.1249 -4.6546,-3.1345 1.7305,-3.3568 2.8039,-0.098 6.0583,-0.6913 7.2318,-1.3194 2.6965,-1.4431 5.2395,0.3616 4.8041,3.4094 -0.2537,1.7752 -0.9951,2.0875 -4.9566,2.0875 -2.5621,0 -6.5265,-0.3693 -8.8098,-0.8207 z m -673.2819,-7.4792 c -4.1006,-0.2139 -5.75,-0.6989 -5.75,-1.691 0,-0.7651 0.5033,-1.7021 1.1184,-2.0823 0.6152,-0.3802 9.5027,-0.5763 19.75,-0.4359 10.2474,0.1404 19.5316,0.2437 20.6316,0.2295 8.4523,-0.1088 12.5909,-0.5585 13.1273,-1.4264 0.3447,-0.5578 0.5812,-14.7082 0.5256,-31.4454 -0.09,-27.0488 0.077,-30.4996 1.5009,-31.046 1.0048,-0.3856 2.2419,0.2334 3.318,1.6601 1.4386,1.9071 2.0544,2.0937 3.8098,1.1542 2.3679,-1.2673 27.3005,-1.8022 29.2028,-0.6266 0.6699,0.4141 3.5349,1.0356 6.3668,1.3812 4.2726,0.5216 5.1488,0.9688 5.1488,2.6285 0,1.6487 -0.7027,2.019 -4,2.108 -2.2,0.059 -5.4138,-0.4597 -7.1418,-1.1537 -2.1117,-0.8481 -5.1014,-1.0307 -9.1189,-0.557 -8.3825,0.9883 -19.0094,0.5384 -20.715,-0.8771 -3.7994,-3.1532 -4.4882,1.1225 -4.8963,30.3911 -0.2747,19.7068 -0.131,22.0857 1.4284,23.6451 1.2999,1.2999 1.5619,2.5736 1.0467,5.0887 l -0.6871,3.3549 -24.458,0 c -13.4519,0 -27.0455,-0.135 -30.208,-0.2999 z m 676.7754,-1.9276 c -2.736,-0.2202 -5.436,-0.7602 -6,-1.2 -0.564,-0.4397 -2.1504,-0.6195 -3.5254,-0.3994 -4.0089,0.6415 -38.3644,1.401 -39.7268,0.8782 -1.8167,-0.6971 -0.5409,-3.1083 2.339,-4.4205 1.7486,-0.7967 3.081,-0.8302 4.4244,-0.1112 1.0573,0.5658 3.0542,0.7447 4.4376,0.3975 2.3459,-0.5888 2.4651,-0.9101 1.7705,-4.7742 -0.7168,-3.9875 -0.8137,-7.3602 -0.5215,-18.1429 0.075,-2.75 0.024,-11.8889 -0.1112,-20.3087 -0.259,-16.0828 0.4057,-19.166 3.8476,-17.8452 1.4255,0.547 1.64,1.4553 1.1603,4.9125 -0.8324,5.9994 -0.8309,5.2373 -0.033,16.5855 0.5355,7.6188 0.412,10.5387 -0.4685,11.0829 -0.809,0.5 -0.9139,1.5206 -0.3246,3.156 1.4364,3.986 1.5475,20.8013 0.1486,22.4868 -0.6749,0.8132 -0.9309,1.7747 -0.5689,2.1367 0.6424,0.6424 16.8729,1.5459 29.3833,1.6357 3.727,0.027 6.7592,-0.4598 7.5,-1.2035 0.8873,-0.8908 1.2327,-5.6723 1.2058,-16.6935 -0.021,-8.4949 0.3488,-15.4452 0.8214,-15.4452 2.8403,0 3.3207,2.9388 3.2691,20 -0.06,19.8071 0.8494,18.0675 -9.0274,17.2725 z m -658.6553,-5.0225 c -0.3508,-2.0249 -2.1779,-40.572 -2.0615,-43.4905 0.06,-1.5073 -0.5472,-4.6013 -1.3496,-6.8757 -1.7086,-4.8427 -1.9075,-10.4886 -0.4022,-11.4189 1.737,-1.0736 5.3518,0.3129 6.7612,2.5933 1.0543,1.7057 1.0816,3.0637 0.1368,6.7871 -0.8748,3.4475 -0.9434,10.4901 -0.2646,27.1547 0.5041,12.375 0.5392,23.2875 0.078,24.25 -0.8454,1.7643 -2.6574,2.3895 -2.8981,1 z m 20.9314,-2.1231 c -1.0676,-1.5242 -1.2975,-5.4278 -1.0186,-17.2976 0.5658,-24.0825 0.9312,-27.9815 2.7885,-29.7485 1.5378,-1.4632 1.6133,-1.3077 1.0143,2.0912 -0.3559,2.0196 -0.2622,3.9099 0.2081,4.2006 0.6668,0.412 0.7021,14.7873 0.05,20.1274 -0.067,0.55 0.2121,5.2938 0.6206,10.5418 0.6177,7.9352 0.4879,9.7533 -0.7705,10.7977 -1.2456,1.0338 -1.757,0.9077 -2.8919,-0.7126 z m -42.0549,-0.3449 c -0.2778,-0.7239 -0.4469,-11.5628 -0.3758,-24.0864 0.1273,-22.4446 0.097,-22.7981 -2.1208,-24.7263 -1.2375,-1.0758 -2.25,-2.4249 -2.25,-2.9979 0,-0.6506 -0.6571,-0.7213 -1.75,-0.1884 -0.9625,0.4694 -11.425,0.9681 -23.25,1.1082 -23.2185,0.2752 -28.5,0.8589 -28.5,3.1498 0,1.2359 3.6707,1.4716 24,1.5413 28.5057,0.098 27.5,0.028 27.5,1.9177 0,1.868 1.4975,1.6957 -18,2.0711 -9.075,0.1747 -21.5168,0.5187 -27.6484,0.7643 l -11.1484,0.4467 -0.6999,-5.6022 c -0.6285,-5.0305 -0.4745,-5.7848 1.5091,-7.3911 1.2151,-0.9838 3.1718,-1.8073 4.3484,-1.8298 25.3786,-0.4865 51.8731,-0.01 53.0346,0.9542 1.0745,0.8918 1.7592,0.7893 2.997,-0.4485 0.8823,-0.8823 2.6175,-1.4603 3.8559,-1.2845 1.7102,0.2429 2.209,0.921 2.0742,2.8198 -0.5687,8.0074 -0.7833,32.4007 -0.3431,39 0.7568,11.3453 0.4678,15.4786 -1.1036,15.7833 -0.8933,0.1732 -1.8514,-0.2774 -2.1292,-1.0013 z m 31.6297,0.018 c -0.4079,-0.6601 -0.8719,-8.8159 -1.031,-18.124 -0.1591,-9.3081 -0.6018,-17.8806 -0.9838,-19.0498 -0.382,-1.1693 -0.774,-3.026 -0.8712,-4.126 -0.097,-1.1 -0.5296,-5.2546 -0.961,-9.2325 -0.6959,-6.4173 -0.5855,-7.3087 0.9791,-7.9092 0.9699,-0.3721 2.4898,-0.2139 3.3775,0.3516 1.3626,0.868 1.623,3.3468 1.671,15.9091 0.031,8.1845 0.438,21.2935 0.9037,29.131 0.7564,12.7298 0.6766,14.25 -0.7479,14.25 -0.8771,0 -1.9284,-0.5401 -2.3364,-1.2002 z m 570.6237,-0.5413 c 0,-1.7628 -3.8901,-2.5649 -11.3795,-2.3462 -18.0965,0.5284 -31.1047,-2.9095 -15.8705,-4.1944 14.7698,-1.2457 53.3334,-1.0023 54.7,0.3453 2.3663,2.3334 -1.7222,3.4386 -13.1703,3.5603 -9.9906,0.1062 -11.8081,0.3786 -12.9506,1.9411 -0.731,0.9997 -1.3291,1.312 -1.3291,0.6939 z m 30.9334,-1.9272 c -0.5934,-1.5572 -0.8614,-3.9563 -0.5955,-5.3313 0.2659,-1.375 0.1401,-5.65 -0.2796,-9.5 -0.4197,-3.85 -0.3675,-8.0732 0.1159,-9.385 0.6072,-1.6477 0.4417,-3.0522 -0.5353,-4.5434 -1.2186,-1.8598 -1.2187,-2.4257 -9e-4,-4.0912 1.0089,-1.3797 1.3761,-4.6579 1.2835,-11.4566 -0.1691,-12.4076 -0.2348,-12.0238 2.0597,-12.0238 1.8702,0 1.9779,0.686 1.9231,12.25 -0.032,6.7375 -0.017,13.375 0.033,14.75 0.05,1.375 -0.028,8.9857 -0.1731,16.9127 -0.1909,10.405 -0.6102,14.529 -1.5082,14.8312 -0.6841,0.2303 -1.7294,-0.8554 -2.3228,-2.4126 z m 21.0076,0.9187 c -0.032,-0.9625 -0.2203,-3.55 -0.4174,-5.75 -0.4015,-4.4821 -0.493,-21.1764 -0.2109,-38.5 0.1751,-10.7526 0.3167,-11.5 2.1779,-11.5 1.9174,0 2.0006,0.7914 2.2621,21.5 0.1494,11.825 0.3593,24.2047 0.4665,27.5104 0.1072,3.3058 -0.1498,6.5683 -0.5711,7.25 -1.1394,1.8435 -3.6393,1.4992 -3.7071,-0.5104 z m 21.2218,0.083 c -2.1576,-1.7471 -2.2352,-2.246 -1.4536,-9.3393 0.4542,-4.1215 0.745,-12.2186 0.6463,-17.9936 -0.099,-5.775 -0.1944,-12.8992 -0.2127,-15.8316 -0.018,-2.9324 -0.5158,-5.9129 -1.1054,-6.6233 -1.2445,-1.4996 -0.3552,-4.5522 1.3196,-4.5298 3.5477,0.048 3.7597,1.3713 4.1795,26.0992 0.2281,13.4317 0.075,25.6909 -0.3399,27.2426 -0.7482,2.7979 -0.7735,2.8061 -3.0338,0.9758 z m -665.2873,-0.5829 c -0.068,-0.6875 -0.2933,-10.025 -0.4997,-20.75 -0.2064,-10.725 -0.51,-22.65 -0.6746,-26.5 -0.3548,-8.2976 -0.064,-9.5 2.2988,-9.5 2.1468,0 2.6871,1.3555 2.3915,6 -0.5063,7.9565 -0.3599,34.1388 0.2391,42.75 0.6248,8.9817 0.5814,9.25 -1.4936,9.25 -1.1754,0 -2.193,-0.5625 -2.2615,-1.25 z m 538.9735,0.5 c -0.506,-2.5139 -0.6729,-8.4412 -0.5987,-21.25 0.046,-7.975 0.013,-16.075 -0.073,-18 -0.364,-8.0793 0.011,-15.5588 0.8208,-16.3828 0.4774,-0.4855 1.4884,-0.6447 2.2467,-0.3537 1.3241,0.5081 1.4393,8.0627 0.8083,52.9865 -0.037,2.6433 -0.4953,3.75 -1.5526,3.75 -0.825,0 -1.568,-0.3375 -1.651,-0.75 z m 10.5149,-0.4702 c -0.9446,-1.5284 -1.3206,-48.7563 -0.4231,-53.1446 0.4557,-2.2284 1.2078,-3.1352 2.6002,-3.1352 2.0129,0 2.0761,0.798 1.2666,16 -0.059,1.1 -0.041,7.4 0.039,14 0.1647,13.6156 -0.7337,26.3124 -1.9133,27.0415 -0.4371,0.2701 -1.1431,-0.073 -1.569,-0.7617 z m 104.3857,-4.5298 c -0.274,-3.1625 -0.1107,-6.4967 0.3629,-7.4094 0.4735,-0.9127 0.4956,-3.615 0.049,-6.0051 -0.4465,-2.3901 -0.5183,-8.3933 -0.1594,-13.3405 0.3589,-4.9473 0.2487,-12.091 -0.2449,-15.875 -0.9374,-7.1873 -0.3203,-9.157 2.5269,-8.0644 1.3967,0.5359 1.6104,2.6992 1.5592,15.7827 -0.033,8.339 0.1955,20.2108 0.5071,26.3818 0.468,9.2715 0.3007,11.4858 -0.9635,12.75 -2.5131,2.5132 -3.1146,1.8153 -3.6374,-4.2201 z m -726.4996,-4.375 c -1.7517,-1.7868 -1.5584,-5.5427 0.3224,-6.2644 0.8649,-0.3319 2.4588,-0.1291 3.542,0.4506 1.2199,0.6529 11.6709,1.0861 27.4561,1.138 23.1937,0.076 28.0092,0.5544 25.9843,2.5793 -0.355,0.355 -5.6876,0.7573 -11.8501,0.8939 -20.1164,0.4458 -36.1265,1.1758 -40.2047,1.833 -2.6781,0.4316 -4.4131,0.2233 -5.25,-0.6304 z m 125.4447,-1.535 c -0.993,-0.2794 -1.6327,-1.0327 -1.4215,-1.674 0.4705,-1.4295 11.057,-2.3468 19.2268,-1.666 3.3,0.275 8.7022,0.1932 12.0048,-0.1818 3.3026,-0.3749 11.3966,-0.5999 17.9865,-0.5 10.6371,0.1614 12.0205,0.3828 12.3264,1.9727 0.3091,1.6061 -0.2377,1.7279 -5.3011,1.1812 -3.6572,-0.395 -6.1365,-0.2025 -7.0388,0.5463 -0.9198,0.7634 -3.6997,0.9562 -8.1853,0.5678 -8.296,-0.7184 -14.7509,-0.7607 -27.7925,-0.182 -5.5,0.244 -10.8124,0.2151 -11.8053,-0.064 z m 72.5633,4e-4 c -0.9875,-0.3989 -0.9886,-0.9463 0,-2.6711 0.8683,-1.523 1.2383,-8.1279 1.242,-22.1693 0.01,-19.3316 0.072,-20 2.0052,-20 1.9308,0 1.9937,0.6055 1.8166,17.5 -0.3055,29.1533 -0.324,29.253 -5.0586,27.3404 z m 452.4044,-1.5476 c -0.6281,-0.389 -5.3091,-0.5043 -10.4022,-0.2562 -7.5872,0.3696 -9.2602,0.1918 -9.2602,-0.9838 0,-0.7891 0.4486,-1.712 0.9968,-2.0508 0.5483,-0.3389 11.4608,-0.6705 24.25,-0.7369 12.7893,-0.066 24.7988,-0.4621 26.6877,-0.8792 5.3646,-1.1847 13.417,3.0236 8.8155,4.607 -2.2048,0.7587 -39.9024,1.0338 -41.0876,0.2999 z m -649.3458,-6.8714 c -2.1958,-0.8123 -3.6798,-3.5248 -2.7507,-5.028 0.3147,-0.5093 1.0654,-0.6212 1.6682,-0.2487 0.6027,0.3725 12.7216,0.6307 26.9309,0.5739 21.8869,-0.088 25.835,0.117 25.835,1.339 0,0.7933 -0.5625,1.4802 -1.25,1.5265 -0.6875,0.046 -9.8695,0.2768 -20.4045,0.5123 -10.535,0.2356 -21.1427,0.7998 -23.5725,1.2537 -2.4299,0.454 -5.3353,0.486 -6.4564,0.071 z m 146.6834,-2.1624 c -4.125,-0.4724 -10.65,-0.6701 -14.5,-0.4393 -6.9959,0.4195 -11.8292,-0.3802 -9.8165,-1.6241 0.5779,-0.3572 14.6106,-0.9099 31.1836,-1.2282 29.6441,-0.5694 33.3165,-0.2416 28.167,2.5143 -2.1582,1.1551 -5.4424,1.3375 -17.6572,0.9807 -4.4677,-0.1305 -8.5177,-0.036 -9,0.2092 -0.4823,0.2455 -4.2519,0.06 -8.3769,-0.4126 z m 494.0858,-0.6346 c -0.7778,-0.52 -2.8536,-0.7118 -4.6128,-0.4263 -3.4621,0.5618 -8.2283,-1.3465 -6.8304,-2.7348 0.7382,-0.733 13.8633,-1.0589 41.8574,-1.0395 3.85,0 9.3421,-0.1562 12.2047,-0.3529 5.4007,-0.3712 9.1801,1.1884 7.8998,3.2599 -0.4863,0.787 -6.8899,1.1243 -20.9129,1.1016 -11.1166,-0.018 -22.0074,0.2305 -24.2018,0.5523 -2.1944,0.3218 -4.6262,0.1596 -5.404,-0.3603 z m -453.4197,-6.5521 c -0.3013,-0.7852 -0.5691,-7.0852 -0.5952,-14 l -0.047,-12.5723 3.1199,0 c 3.1113,0 3.118,0.012 2.4347,4.25 -0.8552,5.3047 -0.8357,4.8196 -0.5428,13.4789 0.1584,4.6822 -0.2002,7.7648 -1.0178,8.75 -1.5792,1.9028 -2.6456,1.9326 -3.3514,0.093 z m -189.9635,-1.9049 c -0.321,-0.8366 -0.022,-1.9875 0.665,-2.5575 1.4739,-1.2233 30.4571,-1.2025 31.2141,0.022 0.6431,1.0405 -2.2752,1.6253 -11.5817,2.3208 -4.125,0.3083 -10.2481,0.8249 -13.6068,1.148 -4.9201,0.4734 -6.2203,0.292 -6.6906,-0.9337 z m 42.673,-1.1309 c -0.3425,-0.8925 -0.4038,-1.8416 -0.1363,-2.1091 0.6112,-0.6112 4.9815,-0.7733 10.5454,-0.3911 4.7127,0.3237 4.3714,2.089 -0.478,2.4718 -1.5437,0.1219 -4.2696,0.5432 -6.0575,0.9364 -2.523,0.5547 -3.3903,0.3514 -3.8736,-0.908 z m 119.1025,0.6072 c -0.1965,-0.196 -8.1405,-0.421 -17.6532,-0.5 -15.3068,-0.1272 -17.3331,-0.3362 -17.619,-1.8174 -0.2959,-1.5327 2.0492,-1.6749 27.8336,-1.6879 15.4863,-0.01 29.2647,0.407 30.6188,0.9218 4.0717,1.5481 1.5453,3.0645 -5.0047,3.0039 -3.3845,-0.031 -8.7781,0.054 -11.9858,0.1895 -3.2077,0.1355 -5.9931,0.086 -6.1897,-0.1099 z m 587.1769,-0.9724 c -2.118,-2.3404 -2.0853,-3.4719 0.1588,-5.5028 1.7242,-1.5604 1.8253,-1.4198 2.0461,2.845 0.1277,2.4676 0.056,4.4865 -0.1588,4.4865 -0.2151,0 -1.1359,-0.8229 -2.0461,-1.8287 z m -91.988,0.1642 c -0.092,-0.091 -5.6981,-0.3716 -12.4584,-0.6247 -6.7602,-0.2531 -12.5802,-0.7491 -12.9333,-1.1022 -0.3531,-0.3531 -0.1376,-1.1463 0.4789,-1.7628 0.7988,-0.7988 2.2665,-0.83 5.1086,-0.1086 2.1933,0.5567 4.3667,0.6333 4.8297,0.1703 0.4631,-0.4631 3.9842,-1.1118 7.8247,-1.4417 3.8406,-0.3299 9.0078,-0.7881 11.4828,-1.0183 5.5676,-0.5178 31.1564,2.3125 32.4333,3.5874 0.5134,0.5125 0.6,1.2651 0.1926,1.6725 -0.5972,0.5973 -36.3733,1.2052 -36.9589,0.6281 z m -413.3226,-5.3911 c -0.6397,-0.6397 -0.7765,-2.5816 -0.3472,-4.9292 0.3896,-2.1305 0.3315,-4.468 -0.1291,-5.1944 -1.4259,-2.2489 -1.0007,-7.8327 0.6446,-8.4641 3.8522,-1.4782 5.6285,4.0712 3.3736,10.5397 -0.926,2.6563 -0.8278,3.5108 0.5829,5.0696 1.6024,1.7706 1.5846,1.9348 -0.3205,2.9544 -2.4762,1.3252 -2.5029,1.3254 -3.8043,0.024 z m -75.5131,-2.4464 c -0.6484,-0.6484 -13.813,-1.3445 -28.9113,-1.5286 -11.0112,-0.1343 -15.2714,-0.9513 -13.6121,-2.6106 1.4283,-1.4283 4.2725,-1.6322 21.6921,-1.555 18.6119,0.082 26.2896,0.8275 25.733,2.4974 -0.4581,1.374 -4.2508,3.8476 -4.9017,3.1968 z m 10.161,-1.4998 c -3.5376,-0.8351 -3.8029,-3.7566 -0.4183,-4.6061 3.3894,-0.8507 7.807,0.632 8.2163,2.7577 0.3535,1.8354 -3.7414,2.806 -7.798,1.8484 z m 456.4627,-1.4075 c -2.566,-1.8763 -0.879,-3.6442 3.3657,-3.5272 7.3171,0.2018 39.7743,0.2993 43.6793,0.1312 6.1478,-0.2645 10.5,0.7098 10.5,2.3506 0,1.8079 2.4026,1.6417 -29.1423,2.0163 -20.5543,0.2441 -27.0445,0.022 -28.4027,-0.9709 z m 114.545,-2.0907 c 0,-1.4907 0.4306,-2.3519 1,-2 0.55,0.3399 1,1.2399 1,2 0,0.7601 -0.45,1.6601 -1,2 -0.5694,0.3519 -1,-0.5093 -1,-2 z m -571.75,-4.7205 c -2.5551,-1.2323 -2.7953,-2.0875 -1,-3.5595 2.694,-2.2088 8.75,-1.36 8.75,1.2265 0,0.9588 -4.3301,3.8083 -5.2971,3.4858 -0.1116,-0.037 -1.2154,-0.556 -2.4529,-1.1528 z m -71.8884,-1.2795 c -0.8143,-2.122 0.2991,-4.5 2.107,-4.5 1.0349,0 1.5314,0.9727 1.5314,3 0,3.2183 -2.5721,4.2787 -3.6384,1.5 z m 541.6384,-0.4872 c -3.025,-0.4312 -6.2875,-1.1086 -7.25,-1.5054 -1.0472,-0.4317 -1.75,-0.2768 -1.75,0.3856 0,1.7121 -4.986,1.307 -5.6642,-0.4602 -1.3945,-3.6341 -0.7233,-3.7007 35.7835,-3.5475 17.9013,0.075 22.8578,0.3822 23.7624,1.4721 2.2969,2.7677 -1.1055,3.465 -16.968,3.4779 -8.5725,0.01 -17.1225,0.2262 -19,0.4871 -1.8776,0.2609 -5.8887,0.1216 -8.9137,-0.3096 z"
       id="path10174"
       inkscape:connector-curvature="0" />
  </g>
  <metadata
     id="metadata4167">
    <rdf:RDF>
      <cc:Work>
        <dc:format>image/svg+xml</dc:format>
        <dc:type
           rdf:resource="http://purl.org/dc/dcmitype/StillImage" />
        <cc:license
           rdf:resource="http://creativecommons.org/publicdomain/zero/1.0/" />
        <dc:publisher>
          <cc:Agent
             rdf:about="http://openclipart.org/">
            <dc:title></dc:title>
          </cc:Agent>
        </dc:publisher>
        <dc:title></dc:title>
        <dc:date></dc:date>
        <dc:description></dc:description>
        <dc:source></dc:source>
        <dc:creator>
          <cc:Agent>
            <dc:title>j4p4n</dc:title>
          </cc:Agent>
        </dc:creator>
        <dc:subject>
          <rdf:Bag />
        </dc:subject>
      </cc:Work>
      <cc:License
         rdf:about="http://creativecommons.org/publicdomain/zero/1.0/">
        <cc:permits
           rdf:resource="http://creativecommons.org/ns#Reproduction" />
        <cc:permits
           rdf:resource="http://creativecommons.org/ns#Distribution" />
        <cc:permits
           rdf:resource="http://creativecommons.org/ns#DerivativeWorks" />
      </cc:License>
    </rdf:RDF>
  </metadata>
</svg>
